<svg width="18" height="15" viewBox="0 0 18 15" fill="none" xmlns="http://www.w3.org/2000/svg">
<path d="M7.87502 14.3332L6.43752 13.0207C4.9653 11.6734 3.63558 10.3365 2.44835 9.00984C1.26058 7.68373 0.666687 6.22206 0.666687 4.62484C0.666687 3.31928 1.10419 2.229 1.97919 1.354C2.85419 0.479004 3.94446 0.0415039 5.25002 0.0415039C5.98613 0.0415039 6.68058 0.197615 7.33335 0.509837C7.98613 0.822615 8.54169 1.24984 9.00002 1.7915C9.45835 1.24984 10.0139 0.822615 10.6667 0.509837C11.3195 0.197615 12.0139 0.0415039 12.75 0.0415039C14.0556 0.0415039 15.1459 0.479004 16.0209 1.354C16.8959 2.229 17.3334 3.31928 17.3334 4.62484C17.3334 6.22206 16.7431 7.68734 15.5625 9.02067C14.382 10.354 13.0417 11.6943 11.5417 13.0415L10.125 14.3332C9.80558 14.6387 9.43058 14.7915 9.00002 14.7915C8.56947 14.7915 8.19446 14.6387 7.87502 14.3332ZM8.20835 3.45817C7.80558 2.88873 7.37502 2.45456 6.91669 2.15567C6.45835 1.85734 5.9028 1.70817 5.25002 1.70817C4.41669 1.70817 3.72224 1.98595 3.16669 2.5415C2.61113 3.09706 2.33335 3.7915 2.33335 4.62484C2.33335 5.34706 2.5903 6.11428 3.10419 6.9265C3.61808 7.73928 4.2328 8.52762 4.94835 9.2915C5.66335 10.0554 6.39947 10.7707 7.15669 11.4373C7.91335 12.104 8.5278 12.6526 9.00002 13.0832C9.47224 12.6526 10.087 12.104 10.8442 11.4373C11.6009 10.7707 12.337 10.0554 13.0525 9.2915C13.7675 8.52762 14.382 7.73928 14.8959 6.9265C15.4097 6.11428 15.6667 5.34706 15.6667 4.62484C15.6667 3.7915 15.3889 3.09706 14.8334 2.5415C14.2778 1.98595 13.5834 1.70817 12.75 1.70817C12.0972 1.70817 11.5417 1.85734 11.0834 2.15567C10.625 2.45456 10.1945 2.88873 9.79169 3.45817C9.69446 3.59706 9.57641 3.70123 9.43752 3.77067C9.29863 3.84012 9.1528 3.87484 9.00002 3.87484C8.84724 3.87484 8.70141 3.84012 8.56252 3.77067C8.42363 3.70123 8.30558 3.59706 8.20835 3.45817Z" fill="#4D5464"/>
</svg>
