<svg width="40" height="40" viewBox="0 0 40 40" fill="none" xmlns="http://www.w3.org/2000/svg">
<path d="M6.66675 30C5.75008 30 4.96564 29.6739 4.31341 29.0217C3.66008 28.3683 3.33341 27.5833 3.33341 26.6667V8.33333C3.33341 7.41667 3.66008 6.63167 4.31341 5.97833C4.96564 5.32611 5.75008 5 6.66675 5H33.3334C34.2501 5 35.0351 5.32611 35.6884 5.97833C36.3406 6.63167 36.6667 7.41667 36.6667 8.33333V26.6667C36.6667 27.5833 36.3406 28.3683 35.6884 29.0217C35.0351 29.6739 34.2501 30 33.3334 30H6.66675ZM6.66675 26.6667H33.3334V8.33333H6.66675V26.6667ZM3.33341 35C2.86119 35 2.46564 34.84 2.14675 34.52C1.82675 34.2011 1.66675 33.8056 1.66675 33.3333C1.66675 32.8611 1.82675 32.4656 2.14675 32.1467C2.46564 31.8267 2.86119 31.6667 3.33341 31.6667H36.6667C37.139 31.6667 37.5345 31.8267 37.8534 32.1467C38.1734 32.4656 38.3334 32.8611 38.3334 33.3333C38.3334 33.8056 38.1734 34.2011 37.8534 34.52C37.5345 34.84 37.139 35 36.6667 35H3.33341ZM6.66675 26.6667V8.33333V26.6667Z" fill="#667085"/>
</svg>
