<svg width="40" height="40" viewBox="0 0 40 40" fill="none" xmlns="http://www.w3.org/2000/svg">
<path d="M19.9999 34.166C20.4721 34.166 20.8683 34.006 21.1883 33.686C21.5071 33.3671 21.6666 32.9716 21.6666 32.4993C21.6666 32.0271 21.5071 31.6316 21.1883 31.3127C20.8683 30.9927 20.4721 30.8327 19.9999 30.8327C19.5277 30.8327 19.1321 30.9927 18.8133 31.3127C18.4933 31.6316 18.3333 32.0271 18.3333 32.4993C18.3333 32.9716 18.4933 33.3671 18.8133 33.686C19.1321 34.006 19.5277 34.166 19.9999 34.166ZM11.6666 26.666H28.3333V9.99935H11.6666V26.666ZM11.6666 38.3327C10.7499 38.3327 9.96547 38.0066 9.31325 37.3543C8.65992 36.701 8.33325 35.916 8.33325 34.9993V4.99935C8.33325 4.08268 8.65992 3.29768 9.31325 2.64435C9.96547 1.99213 10.7499 1.66602 11.6666 1.66602H28.3333C29.2499 1.66602 30.0349 1.99213 30.6883 2.64435C31.3405 3.29768 31.6666 4.08268 31.6666 4.99935V34.9993C31.6666 35.916 31.3405 36.701 30.6883 37.3543C30.0349 38.0066 29.2499 38.3327 28.3333 38.3327H11.6666ZM11.6666 6.66602H28.3333V4.99935H11.6666V6.66602ZM11.6666 4.99935V6.66602V4.99935ZM11.6666 29.9993V34.9993H28.3333V29.9993H11.6666ZM11.6666 34.9993V29.9993V34.9993Z" fill="#667085"/>
</svg>
