<svg width="45" height="45" viewBox="0 0 45 45" fill="none" xmlns="http://www.w3.org/2000/svg">
<path d="M22.3333 35.3333C21.8139 35.3333 21.3788 35.1573 21.028 34.8053C20.676 34.4545 20.5 34.0194 20.5 33.5V24.3333H11.3333C10.8139 24.3333 10.3782 24.1573 10.0262 23.8053C9.67539 23.4545 9.5 23.0194 9.5 22.5C9.5 21.9805 9.67539 21.5448 10.0262 21.1928C10.3782 20.842 10.8139 20.6666 11.3333 20.6666H20.5V11.5C20.5 10.9805 20.676 10.5448 21.028 10.1928C21.3788 9.84202 21.8139 9.66663 22.3333 9.66663C22.8528 9.66663 23.2885 9.84202 23.6405 10.1928C23.9913 10.5448 24.1667 10.9805 24.1667 11.5V20.6666H33.3333C33.8528 20.6666 34.2879 20.842 34.6387 21.1928C34.9907 21.5448 35.1667 21.9805 35.1667 22.5C35.1667 23.0194 34.9907 23.4545 34.6387 23.8053C34.2879 24.1573 33.8528 24.3333 33.3333 24.3333H24.1667V33.5C24.1667 34.0194 23.9913 34.4545 23.6405 34.8053C23.2885 35.1573 22.8528 35.3333 22.3333 35.3333Z" fill="#667085"/>
</svg>
