<svg width="20" height="20" viewBox="0 0 20 20" fill="none" xmlns="http://www.w3.org/2000/svg">
<path d="M5.00016 6.66683C4.54183 6.66683 4.14961 6.5035 3.8235 6.17683C3.49683 5.85072 3.3335 5.4585 3.3335 5.00016C3.3335 4.54183 3.49683 4.14961 3.8235 3.8235C4.14961 3.49683 4.54183 3.3335 5.00016 3.3335C5.4585 3.3335 5.85072 3.49683 6.17683 3.8235C6.5035 4.14961 6.66683 4.54183 6.66683 5.00016C6.66683 5.4585 6.5035 5.85072 6.17683 6.17683C5.85072 6.5035 5.4585 6.66683 5.00016 6.66683ZM10.0002 16.6668C9.54183 16.6668 9.14961 16.5038 8.8235 16.1777C8.49683 15.851 8.3335 15.4585 8.3335 15.0002C8.3335 14.5418 8.49683 14.1493 8.8235 13.8227C9.14961 13.4966 9.54183 13.3335 10.0002 13.3335C10.4585 13.3335 10.851 13.4966 11.1777 13.8227C11.5038 14.1493 11.6668 14.5418 11.6668 15.0002C11.6668 15.4585 11.5038 15.851 11.1777 16.1777C10.851 16.5038 10.4585 16.6668 10.0002 16.6668ZM5.00016 16.6668C4.54183 16.6668 4.14961 16.5038 3.8235 16.1777C3.49683 15.851 3.3335 15.4585 3.3335 15.0002C3.3335 14.5418 3.49683 14.1493 3.8235 13.8227C4.14961 13.4966 4.54183 13.3335 5.00016 13.3335C5.4585 13.3335 5.85072 13.4966 6.17683 13.8227C6.5035 14.1493 6.66683 14.5418 6.66683 15.0002C6.66683 15.4585 6.5035 15.851 6.17683 16.1777C5.85072 16.5038 5.4585 16.6668 5.00016 16.6668ZM5.00016 11.6668C4.54183 11.6668 4.14961 11.5035 3.8235 11.1768C3.49683 10.8507 3.3335 10.4585 3.3335 10.0002C3.3335 9.54183 3.49683 9.14933 3.8235 8.82266C4.14961 8.49655 4.54183 8.3335 5.00016 8.3335C5.4585 8.3335 5.85072 8.49655 6.17683 8.82266C6.5035 9.14933 6.66683 9.54183 6.66683 10.0002C6.66683 10.4585 6.5035 10.8507 6.17683 11.1768C5.85072 11.5035 5.4585 11.6668 5.00016 11.6668ZM10.0002 11.6668C9.54183 11.6668 9.14961 11.5035 8.8235 11.1768C8.49683 10.8507 8.3335 10.4585 8.3335 10.0002C8.3335 9.54183 8.49683 9.14933 8.8235 8.82266C9.14961 8.49655 9.54183 8.3335 10.0002 8.3335C10.4585 8.3335 10.851 8.49655 11.1777 8.82266C11.5038 9.14933 11.6668 9.54183 11.6668 10.0002C11.6668 10.4585 11.5038 10.8507 11.1777 11.1768C10.851 11.5035 10.4585 11.6668 10.0002 11.6668ZM15.0002 6.66683C14.5418 6.66683 14.1493 6.5035 13.8227 6.17683C13.4966 5.85072 13.3335 5.4585 13.3335 5.00016C13.3335 4.54183 13.4966 4.14961 13.8227 3.8235C14.1493 3.49683 14.5418 3.3335 15.0002 3.3335C15.4585 3.3335 15.851 3.49683 16.1777 3.8235C16.5038 4.14961 16.6668 4.54183 16.6668 5.00016C16.6668 5.4585 16.5038 5.85072 16.1777 6.17683C15.851 6.5035 15.4585 6.66683 15.0002 6.66683ZM10.0002 6.66683C9.54183 6.66683 9.14961 6.5035 8.8235 6.17683C8.49683 5.85072 8.3335 5.4585 8.3335 5.00016C8.3335 4.54183 8.49683 4.14961 8.8235 3.8235C9.14961 3.49683 9.54183 3.3335 10.0002 3.3335C10.4585 3.3335 10.851 3.49683 11.1777 3.8235C11.5038 4.14961 11.6668 4.54183 11.6668 5.00016C11.6668 5.4585 11.5038 5.85072 11.1777 6.17683C10.851 6.5035 10.4585 6.66683 10.0002 6.66683ZM15.0002 11.6668C14.5418 11.6668 14.1493 11.5035 13.8227 11.1768C13.4966 10.8507 13.3335 10.4585 13.3335 10.0002C13.3335 9.54183 13.4966 9.14933 13.8227 8.82266C14.1493 8.49655 14.5418 8.3335 15.0002 8.3335C15.4585 8.3335 15.851 8.49655 16.1777 8.82266C16.5038 9.14933 16.6668 9.54183 16.6668 10.0002C16.6668 10.4585 16.5038 10.8507 16.1777 11.1768C15.851 11.5035 15.4585 11.6668 15.0002 11.6668ZM15.0002 16.6668C14.5418 16.6668 14.1493 16.5038 13.8227 16.1777C13.4966 15.851 13.3335 15.4585 13.3335 15.0002C13.3335 14.5418 13.4966 14.1493 13.8227 13.8227C14.1493 13.4966 14.5418 13.3335 15.0002 13.3335C15.4585 13.3335 15.851 13.4966 16.1777 13.8227C16.5038 14.1493 16.6668 14.5418 16.6668 15.0002C16.6668 15.4585 16.5038 15.851 16.1777 16.1777C15.851 16.5038 15.4585 16.6668 15.0002 16.6668Z" fill="#0241AE"/>
</svg>
