<svg width="20" height="20" viewBox="0 0 20 20" fill="none" xmlns="http://www.w3.org/2000/svg">
<path d="M8.87484 17.3334L7.43734 16.0209C5.96512 14.6737 4.63539 13.3367 3.44817 12.0101C2.26039 10.684 1.6665 9.2223 1.6665 7.62508C1.6665 6.31953 2.104 5.22925 2.979 4.35425C3.854 3.47925 4.94428 3.04175 6.24984 3.04175C6.98595 3.04175 7.68039 3.19786 8.33317 3.51008C8.98595 3.82286 9.5415 4.25008 9.99984 4.79175C10.4582 4.25008 11.0137 3.82286 11.6665 3.51008C12.3193 3.19786 13.0137 3.04175 13.7498 3.04175C15.0554 3.04175 16.1457 3.47925 17.0207 4.35425C17.8957 5.22925 18.3332 6.31953 18.3332 7.62508C18.3332 9.2223 17.7429 10.6876 16.5623 12.0209C15.3818 13.3542 14.0415 14.6945 12.5415 16.0417L11.1248 17.3334C10.8054 17.639 10.4304 17.7917 9.99984 17.7917C9.56928 17.7917 9.19428 17.639 8.87484 17.3334V17.3334ZM9.20817 6.45841C8.80539 5.88897 8.37484 5.4548 7.9165 5.15591C7.45817 4.85758 6.90262 4.70841 6.24984 4.70841C5.4165 4.70841 4.72206 4.98619 4.1665 5.54175C3.61095 6.0973 3.33317 6.79175 3.33317 7.62508C3.33317 8.3473 3.59012 9.11453 4.104 9.92675C4.61789 10.7395 5.23262 11.5279 5.94817 12.2917C6.66317 13.0556 7.39928 13.7709 8.1565 14.4376C8.91317 15.1042 9.52762 15.6529 9.99984 16.0834C10.4721 15.6529 11.0868 15.1042 11.844 14.4376C12.6007 13.7709 13.3368 13.0556 14.0523 12.2917C14.7673 11.5279 15.3818 10.7395 15.8957 9.92675C16.4096 9.11453 16.6665 8.3473 16.6665 7.62508C16.6665 6.79175 16.3887 6.0973 15.8332 5.54175C15.2776 4.98619 14.5832 4.70841 13.7498 4.70841C13.0971 4.70841 12.5415 4.85758 12.0832 5.15591C11.6248 5.4548 11.1943 5.88897 10.7915 6.45841C10.6943 6.5973 10.5762 6.70147 10.4373 6.77091C10.2984 6.84036 10.1526 6.87508 9.99984 6.87508C9.84706 6.87508 9.70123 6.84036 9.56234 6.77091C9.42345 6.70147 9.30539 6.5973 9.20817 6.45841V6.45841Z" fill="#0241AE"/>
</svg>
