<svg width="20" height="20" viewBox="0 0 20 20" fill="none" xmlns="http://www.w3.org/2000/svg">
<path d="M15 18.3334C14.3056 18.3334 13.7153 18.0904 13.2292 17.6042C12.7431 17.1181 12.5 16.5279 12.5 15.8334C12.5 15.7362 12.5069 15.6354 12.5208 15.5309C12.5347 15.427 12.5556 15.3334 12.5833 15.2501L6.70833 11.8334C6.47222 12.0417 6.20833 12.2048 5.91667 12.3226C5.625 12.4409 5.31944 12.5001 5 12.5001C4.30556 12.5001 3.71528 12.257 3.22917 11.7709C2.74306 11.2848 2.5 10.6945 2.5 10.0001C2.5 9.30564 2.74306 8.71536 3.22917 8.22925C3.71528 7.74314 4.30556 7.50008 5 7.50008C5.31944 7.50008 5.625 7.55897 5.91667 7.67675C6.20833 7.79508 6.47222 7.95842 6.70833 8.16675L12.5833 4.75008C12.5556 4.66675 12.5347 4.57314 12.5208 4.46925C12.5069 4.3648 12.5 4.26397 12.5 4.16675C12.5 3.4723 12.7431 2.88203 13.2292 2.39591C13.7153 1.9098 14.3056 1.66675 15 1.66675C15.6944 1.66675 16.2847 1.9098 16.7708 2.39591C17.2569 2.88203 17.5 3.4723 17.5 4.16675C17.5 4.86119 17.2569 5.45147 16.7708 5.93758C16.2847 6.42369 15.6944 6.66675 15 6.66675C14.6806 6.66675 14.375 6.60758 14.0833 6.48925C13.7917 6.37147 13.5278 6.20841 13.2917 6.00008L7.41667 9.41675C7.44444 9.50008 7.46528 9.59369 7.47917 9.69758C7.49306 9.80203 7.5 9.90286 7.5 10.0001C7.5 10.0973 7.49306 10.1979 7.47917 10.3017C7.46528 10.4062 7.44444 10.5001 7.41667 10.5834L13.2917 14.0001C13.5278 13.7917 13.7917 13.6284 14.0833 13.5101C14.375 13.3923 14.6806 13.3334 15 13.3334C15.6944 13.3334 16.2847 13.5765 16.7708 14.0626C17.2569 14.5487 17.5 15.139 17.5 15.8334C17.5 16.5279 17.2569 17.1181 16.7708 17.6042C16.2847 18.0904 15.6944 18.3334 15 18.3334ZM15 5.00008C15.2361 5.00008 15.4339 4.92036 15.5933 4.76091C15.7533 4.60091 15.8333 4.40286 15.8333 4.16675C15.8333 3.93064 15.7533 3.73258 15.5933 3.57258C15.4339 3.41314 15.2361 3.33341 15 3.33341C14.7639 3.33341 14.5661 3.41314 14.4067 3.57258C14.2467 3.73258 14.1667 3.93064 14.1667 4.16675C14.1667 4.40286 14.2467 4.60091 14.4067 4.76091C14.5661 4.92036 14.7639 5.00008 15 5.00008ZM5 10.8334C5.23611 10.8334 5.43417 10.7534 5.59417 10.5934C5.75361 10.434 5.83333 10.2362 5.83333 10.0001C5.83333 9.76397 5.75361 9.56591 5.59417 9.40591C5.43417 9.24647 5.23611 9.16675 5 9.16675C4.76389 9.16675 4.56583 9.24647 4.40583 9.40591C4.24639 9.56591 4.16667 9.76397 4.16667 10.0001C4.16667 10.2362 4.24639 10.434 4.40583 10.5934C4.56583 10.7534 4.76389 10.8334 5 10.8334ZM15 16.6667C15.2361 16.6667 15.4339 16.5867 15.5933 16.4267C15.7533 16.2673 15.8333 16.0695 15.8333 15.8334C15.8333 15.5973 15.7533 15.3995 15.5933 15.2401C15.4339 15.0801 15.2361 15.0001 15 15.0001C14.7639 15.0001 14.5661 15.0801 14.4067 15.2401C14.2467 15.3995 14.1667 15.5973 14.1667 15.8334C14.1667 16.0695 14.2467 16.2673 14.4067 16.4267C14.5661 16.5867 14.7639 16.6667 15 16.6667Z" fill="#0241AE"/>
</svg>
