<svg width="24" height="24" viewBox="0 0 24 24" fill="none" xmlns="http://www.w3.org/2000/svg">
<path d="M12 21.8499C11.8167 21.8499 11.646 21.8372 11.488 21.8119C11.3293 21.7872 11.1833 21.7499 11.05 21.6999C8.98333 20.9332 7.29167 19.5666 5.975 17.5999C4.65833 15.6332 4 13.4666 4 11.0999V6.3749C4 5.95824 4.121 5.58324 4.363 5.2499C4.60433 4.91657 4.91667 4.6749 5.3 4.5249L11.3 2.2749C11.5333 2.19157 11.7667 2.1499 12 2.1499C12.2333 2.1499 12.4667 2.19157 12.7 2.2749L18.7 4.5249C19.0833 4.6749 19.396 4.91657 19.638 5.2499C19.8793 5.58324 20 5.95824 20 6.3749V11.0999C20 13.4666 19.3417 15.6332 18.025 17.5999C16.7083 19.5666 15.0167 20.9332 12.95 21.6999C12.8167 21.7499 12.6707 21.7872 12.512 21.8119C12.354 21.8372 12.1833 21.8499 12 21.8499ZM12 19.8999C13.6167 19.3999 14.9667 18.4126 16.05 16.9379C17.1333 15.4626 17.7667 13.8166 17.95 11.9999H12V4.1249L6 6.3749V11.5499C6 11.6666 6.01667 11.8166 6.05 11.9999H12V19.8999Z" fill="#0356E8"/>
</svg>
