<svg width="14" height="14" viewBox="0 0 14 14" fill="none" xmlns="http://www.w3.org/2000/svg">
<path d="M6.99998 7.00016C6.08331 7.00016 5.29859 6.67377 4.64581 6.021C3.99304 5.36822 3.66665 4.5835 3.66665 3.66683C3.66665 2.75016 3.99304 1.96544 4.64581 1.31266C5.29859 0.659885 6.08331 0.333496 6.99998 0.333496C7.91665 0.333496 8.70137 0.659885 9.35415 1.31266C10.0069 1.96544 10.3333 2.75016 10.3333 3.66683C10.3333 4.5835 10.0069 5.36822 9.35415 6.021C8.70137 6.67377 7.91665 7.00016 6.99998 7.00016ZM1.33331 13.6668C0.781027 13.6668 0.333313 13.2191 0.333313 12.6668V11.3335C0.333313 10.8613 0.45498 10.4271 0.698313 10.031C0.941091 9.63544 1.26387 9.3335 1.66665 9.12516C2.52776 8.69461 3.40276 8.37155 4.29165 8.156C5.18054 7.941 6.08331 7.8335 6.99998 7.8335C7.91665 7.8335 8.81942 7.941 9.70831 8.156C10.5972 8.37155 11.4722 8.69461 12.3333 9.12516C12.7361 9.3335 13.0589 9.63544 13.3016 10.031C13.545 10.4271 13.6666 10.8613 13.6666 11.3335V12.6668C13.6666 13.2191 13.2189 13.6668 12.6666 13.6668H1.33331ZM1.99998 11.3335C1.99998 11.7017 2.29846 12.0002 2.66665 12.0002H11.3333C11.7015 12.0002 12 11.7017 12 11.3335C12 11.1807 11.9619 11.0418 11.8858 10.9168C11.8091 10.7918 11.7083 10.6946 11.5833 10.6252C10.8333 10.2502 10.0764 9.96877 9.31248 9.781C8.54859 9.59377 7.77776 9.50016 6.99998 9.50016C6.2222 9.50016 5.45137 9.59377 4.68748 9.781C3.92359 9.96877 3.16665 10.2502 2.41665 10.6252C2.29165 10.6946 2.19109 10.7918 2.11498 10.9168C2.03831 11.0418 1.99998 11.1807 1.99998 11.3335ZM6.99998 5.3335C7.45831 5.3335 7.85081 5.17016 8.17748 4.8435C8.50359 4.51738 8.66665 4.12516 8.66665 3.66683C8.66665 3.2085 8.50359 2.81627 8.17748 2.49016C7.85081 2.1635 7.45831 2.00016 6.99998 2.00016C6.54165 2.00016 6.14942 2.1635 5.82331 2.49016C5.49665 2.81627 5.33331 3.2085 5.33331 3.66683C5.33331 4.12516 5.49665 4.51738 5.82331 4.8435C6.14942 5.17016 6.54165 5.3335 6.99998 5.3335Z" fill="#4D5464"/>
</svg>
