<svg width="20" height="20" viewBox="0 0 20 20" fill="none" xmlns="http://www.w3.org/2000/svg">
<path d="M10 12.4793C9.88891 12.4793 9.78141 12.4585 9.67752 12.4168C9.57308 12.3752 9.48613 12.3196 9.41669 12.2502L5.58335 8.41683C5.43058 8.26405 5.35419 8.06961 5.35419 7.8335C5.35419 7.59738 5.43058 7.40294 5.58335 7.25016C5.73613 7.09738 5.93058 7.021 6.16669 7.021C6.4028 7.021 6.59724 7.09738 6.75002 7.25016L10 10.5002L13.25 7.25016C13.4028 7.09738 13.5972 7.021 13.8334 7.021C14.0695 7.021 14.2639 7.09738 14.4167 7.25016C14.5695 7.40294 14.6459 7.59738 14.6459 7.8335C14.6459 8.06961 14.5695 8.26405 14.4167 8.41683L10.5834 12.2502C10.5 12.3335 10.4097 12.3924 10.3125 12.4268C10.2153 12.4618 10.1111 12.4793 10 12.4793Z" fill="#4D5464"/>
</svg>
