<svg width="20" height="20" viewBox="0 0 20 20" fill="none" xmlns="http://www.w3.org/2000/svg">
<path d="M8.87502 17.3332L7.43752 16.0207C5.9653 14.6734 4.63558 13.3365 3.44835 12.0098C2.26058 10.6837 1.66669 9.22206 1.66669 7.62484C1.66669 6.31928 2.10419 5.229 2.97919 4.354C3.85419 3.479 4.94446 3.0415 6.25002 3.0415C6.98613 3.0415 7.68058 3.19761 8.33335 3.50984C8.98613 3.82261 9.54169 4.24984 10 4.7915C10.4584 4.24984 11.0139 3.82261 11.6667 3.50984C12.3195 3.19761 13.0139 3.0415 13.75 3.0415C15.0556 3.0415 16.1459 3.479 17.0209 4.354C17.8959 5.229 18.3334 6.31928 18.3334 7.62484C18.3334 9.22206 17.7431 10.6873 16.5625 12.0207C15.382 13.354 14.0417 14.6943 12.5417 16.0415L11.125 17.3332C10.8056 17.6387 10.4306 17.7915 10 17.7915C9.56947 17.7915 9.19446 17.6387 8.87502 17.3332ZM9.20835 6.45817C8.80558 5.88873 8.37502 5.45456 7.91669 5.15567C7.45835 4.85734 6.9028 4.70817 6.25002 4.70817C5.41669 4.70817 4.72224 4.98595 4.16669 5.5415C3.61113 6.09706 3.33335 6.7915 3.33335 7.62484C3.33335 8.34706 3.5903 9.11428 4.10419 9.9265C4.61808 10.7393 5.2328 11.5276 5.94835 12.2915C6.66335 13.0554 7.39947 13.7707 8.15669 14.4373C8.91335 15.104 9.5278 15.6526 10 16.0832C10.4722 15.6526 11.087 15.104 11.8442 14.4373C12.6009 13.7707 13.337 13.0554 14.0525 12.2915C14.7675 11.5276 15.382 10.7393 15.8959 9.9265C16.4097 9.11428 16.6667 8.34706 16.6667 7.62484C16.6667 6.7915 16.3889 6.09706 15.8334 5.5415C15.2778 4.98595 14.5834 4.70817 13.75 4.70817C13.0972 4.70817 12.5417 4.85734 12.0834 5.15567C11.625 5.45456 11.1945 5.88873 10.7917 6.45817C10.6945 6.59706 10.5764 6.70123 10.4375 6.77067C10.2986 6.84012 10.1528 6.87484 10 6.87484C9.84724 6.87484 9.70141 6.84012 9.56252 6.77067C9.42363 6.70123 9.30558 6.59706 9.20835 6.45817Z" fill="#4D5464"/>
</svg>
