<svg width="101" height="31" viewBox="0 0 101 31" fill="none" xmlns="http://www.w3.org/2000/svg">
<g clip-path="url(#clip0_5067_4655)">
<path fill-rule="evenodd" clip-rule="evenodd" d="M85.358 23.8452V29.349C85.358 29.8289 85.3752 30.3468 85.3959 30.6645H84.3437L84.285 29.9256H84.2678C84.1144 30.1919 83.8914 30.4114 83.6227 30.5605C83.354 30.7095 83.0498 30.7825 82.7429 30.7715C81.6147 30.7715 80.728 29.8185 80.728 28.3822C80.728 26.8181 81.7009 25.8858 82.8291 25.8858C83.0826 25.8654 83.337 25.9101 83.5683 26.0159C83.7996 26.1217 84 26.2849 84.1505 26.4901H84.1815V23.8452H85.358ZM84.1815 27.9437C84.1814 27.837 84.171 27.7307 84.1505 27.626C84.1014 27.3892 83.971 27.177 83.7819 27.0262C83.5929 26.8755 83.3571 26.7958 83.1155 26.8008C82.353 26.8008 81.9286 27.4741 81.9286 28.3373C81.9286 29.2005 82.353 29.822 83.1051 29.822C83.3477 29.8267 83.5843 29.746 83.7735 29.5939C83.9627 29.4418 84.0924 29.228 84.1401 28.9899C84.1672 28.8768 84.18 28.7608 84.1781 28.6446L84.1815 27.9437ZM51.3474 25.3232C51.2599 25.3297 51.172 25.318 51.0892 25.2889C51.0064 25.2598 50.9304 25.2139 50.8661 25.1541C50.8018 25.0944 50.7505 25.0219 50.7155 24.9414C50.6804 24.8609 50.6623 24.774 50.6623 24.6862C50.6623 24.5983 50.6804 24.5114 50.7155 24.4309C50.7505 24.3504 50.8018 24.278 50.8661 24.2182C50.9304 24.1584 51.0064 24.1125 51.0892 24.0835C51.172 24.0544 51.2599 24.0427 51.3474 24.0491C51.435 24.0427 51.5229 24.0544 51.6057 24.0835C51.6885 24.1125 51.7645 24.1584 51.8288 24.2182C51.8931 24.278 51.9444 24.3504 51.9794 24.4309C52.0145 24.5114 52.0326 24.5983 52.0326 24.6862C52.0326 24.774 52.0145 24.8609 51.9794 24.9414C51.9444 25.0219 51.8931 25.0944 51.8288 25.1541C51.7645 25.2139 51.6885 25.2598 51.6057 25.2889C51.5229 25.318 51.435 25.3297 51.3474 25.3232ZM50.7575 30.6681V25.9965H51.9443V30.6681H50.7575ZM19.9207 24.2011V30.6682H18.7373V24.2011H19.9207ZM21.2904 27.3874C21.2904 26.8488 21.2731 26.3964 21.2524 26.0063H22.2875L22.3461 26.6968H22.3737C22.5337 26.4444 22.7564 26.2379 23.0201 26.0975C23.2838 25.957 23.5794 25.8875 23.8779 25.8958C24.6956 25.8958 25.5305 26.4172 25.5305 27.8949V30.6572H24.3575V28.0296C24.3575 27.339 24.1091 26.8488 23.4605 26.8488C23.2536 26.8527 23.0531 26.9215 22.8873 27.0453C22.7214 27.1692 22.5985 27.3419 22.5359 27.5393C22.4952 27.6594 22.4754 27.7855 22.4772 27.9122V30.6744H21.2904V27.3874ZM26.7693 26.007C26.79 26.3972 26.8107 26.8495 26.8107 27.3881V30.6752H27.9941V27.9129C27.9923 27.7862 28.0121 27.6601 28.0527 27.54C28.1156 27.3421 28.239 27.169 28.4056 27.0451C28.5721 26.9212 28.7733 26.8527 28.9808 26.8495C29.626 26.8495 29.8744 27.3398 29.8744 28.0303V30.6579H31.0508V27.8957C31.0508 26.4179 30.2125 25.8965 29.3948 25.8965C29.0968 25.8889 28.8019 25.9587 28.5389 26.0991C28.2759 26.2394 28.0537 26.4456 27.894 26.6976H27.863L27.8043 26.007H26.7693ZM34.3802 30.7746C34.0625 30.7874 33.7456 30.7331 33.4502 30.6154C33.1548 30.4976 32.8874 30.3189 32.6655 30.091C32.4436 29.863 32.2721 29.5909 32.1621 29.2922C32.0522 28.9936 32.0062 28.6752 32.0273 28.3576C32.0273 26.8246 33.0416 25.882 34.4423 25.882C35.843 25.882 36.7746 26.8626 36.7746 28.2989C36.7746 30.0253 35.5601 30.7849 34.3595 30.7849L34.3802 30.7746ZM34.4182 29.9183C35.1082 29.9183 35.567 29.2657 35.567 28.3162C35.567 27.5877 35.222 26.7452 34.4285 26.7452C33.635 26.7452 33.2521 27.56 33.2521 28.3369C33.2521 29.2381 33.704 29.9183 34.4113 29.9183H34.4182ZM39.2029 28.3648L38.4404 25.9962H37.157L38.9027 30.6679H40.0723L41.8663 25.9962H40.6208L39.8687 28.3648C39.7445 28.7861 39.6376 29.1521 39.5513 29.5353H39.5203C39.434 29.1521 39.3374 28.7792 39.2029 28.3648ZM46.1752 29.5461C46.1674 29.9218 46.194 30.2974 46.2546 30.6682H45.1954L45.1092 30.1503H45.0816C44.9142 30.3527 44.7029 30.5142 44.4637 30.6225C44.2246 30.7308 43.9639 30.783 43.7015 30.7753C43.5126 30.7881 43.3231 30.7618 43.1448 30.6981C42.9664 30.6345 42.8031 30.5348 42.6649 30.4052C42.5267 30.2757 42.4167 30.1191 42.3416 29.9451C42.2665 29.7712 42.2279 29.5836 42.2284 29.3941C42.2284 28.2237 43.2634 27.6194 45.0126 27.6263V27.5504C45.0126 27.2431 44.8883 26.7355 44.0603 26.7355C43.6163 26.7367 43.1806 26.8559 42.7976 27.0808L42.563 26.3143C43.0833 26.0309 43.6683 25.8881 44.2604 25.8999C45.7681 25.8999 46.1994 26.8494 46.1994 27.8784L46.1752 29.5461ZM45.0195 28.3859C44.1811 28.3859 43.3807 28.5482 43.3807 29.256C43.3696 29.3494 43.3798 29.4441 43.4105 29.5329C43.4413 29.6217 43.4918 29.7024 43.5582 29.7689C43.6247 29.8354 43.7053 29.8859 43.7941 29.9167C43.8828 29.9475 43.9774 29.9577 44.0707 29.9466C44.2742 29.9513 44.474 29.8918 44.6418 29.7766C44.8096 29.6613 44.9369 29.4961 45.0056 29.3044C45.0312 29.2206 45.0417 29.1329 45.0367 29.0454L45.0195 28.3859ZM48.7324 25.9961V24.7946L47.5801 25.1226V25.9961H46.9142V26.8766H47.5801V29.0691C47.5322 29.5397 47.6669 30.0106 47.9562 30.3846C48.0866 30.5132 48.2414 30.6146 48.4114 30.6828C48.5814 30.7509 48.7632 30.7846 48.9463 30.7817C49.2376 30.7878 49.5278 30.7458 49.8054 30.6574V29.7631C49.6534 29.8021 49.4964 29.8184 49.3396 29.8115C48.8877 29.8115 48.7324 29.5249 48.7324 28.9483V26.8766H49.8606V25.9961H48.7324ZM54.7425 28.3648L53.98 25.9962H52.6966L54.4423 30.6679H55.6119L57.4059 25.9962H56.1604L55.4083 28.3648C55.2841 28.7861 55.1772 29.1521 55.0909 29.5353H55.0599C54.9736 29.1521 54.877 28.7792 54.7425 28.3648ZM58.8404 28.6587C58.8715 29.5046 59.5304 29.8672 60.2894 29.8672C60.7319 29.8734 61.1721 29.8021 61.5901 29.6565L61.7626 30.4645C61.2414 30.6712 60.6843 30.7721 60.1238 30.7614C58.5989 30.7614 57.7088 29.8292 57.7088 28.3997C57.7088 27.1049 58.5023 25.8861 60.0065 25.8861C61.5107 25.8861 62.0317 27.1325 62.0317 28.1615C62.0325 28.328 62.0198 28.4943 61.9937 28.6587H58.8404ZM60.9104 27.8335C60.9104 27.4019 60.7241 26.694 59.9341 26.694C59.2027 26.694 58.8991 27.3535 58.8438 27.8335H60.9104ZM70.5065 27.8974L70.5125 28.0298L70.6332 30.678H71.7924L71.4164 24.211H69.8777L68.9807 26.8006C68.7288 27.5602 68.508 28.3647 68.3321 29.0552H68.3044C68.1388 28.3371 67.9387 27.5705 67.7076 26.8109L66.8589 24.211H65.296L64.8613 30.678H65.9791L66.124 28.0781C66.1723 27.1873 66.2103 26.1618 66.2413 25.3159H66.2482C66.4242 26.1238 66.6553 27.0077 66.9037 27.8295L67.7731 30.5917H68.6805L69.6362 27.7881C69.9225 26.9732 70.1951 26.0996 70.4055 25.3124H70.4366C70.4268 26.1501 70.4696 27.0902 70.5065 27.8974ZM73.6278 25.3228C73.5039 25.3128 73.3857 25.2667 73.2877 25.1904C73.1896 25.1141 73.1159 25.0107 73.0757 24.8931C73.0354 24.7755 73.0304 24.6487 73.0611 24.5282C73.0918 24.4077 73.157 24.2988 73.2487 24.2149C73.3403 24.131 73.4545 24.0756 73.5771 24.0557C73.6997 24.0357 73.8255 24.052 73.939 24.1026C74.0525 24.1531 74.1488 24.2357 74.2161 24.3402C74.2834 24.4447 74.3187 24.5666 74.3178 24.691C74.3187 24.7793 74.301 24.8668 74.2658 24.9478C74.2307 25.0288 74.1789 25.1015 74.1138 25.1611C74.0487 25.2208 73.9717 25.266 73.888 25.2938C73.8042 25.3217 73.7156 25.3316 73.6278 25.3228ZM73.0413 30.6678V25.9961H74.2246V30.6678H73.0413ZM75.4701 26.0063C75.4908 26.3964 75.508 26.8488 75.508 27.3874V30.6744H76.6949V27.9122C76.693 27.7855 76.7129 27.6594 76.7535 27.5393C76.8162 27.3419 76.9391 27.1692 77.1049 27.0453C77.2708 26.9215 77.4712 26.8527 77.6781 26.8488C78.3267 26.8488 78.5751 27.339 78.5751 28.0296V30.6641H79.7619V27.9019C79.7619 26.4241 78.9132 25.8958 78.0956 25.8958C77.797 25.8875 77.5014 25.957 77.2377 26.0975C76.9741 26.2379 76.7513 26.4444 76.5914 26.6968H76.5638L76.5051 26.0063H75.4701ZM87.7903 29.9182C87.3702 29.9023 86.9604 29.7838 86.5965 29.573L86.355 30.4258C86.7972 30.6504 87.2876 30.763 87.7833 30.7538C89.0254 30.7538 89.6912 30.1392 89.6912 29.2864C89.6809 28.5958 89.2979 28.1608 88.4389 27.8638C87.8385 27.6428 87.6178 27.4978 87.6178 27.2113C87.6178 26.9247 87.8489 26.7141 88.2733 26.7141C88.6218 26.7187 88.9636 26.8113 89.2669 26.9834L89.5084 26.1582C89.1196 25.9652 88.6899 25.8693 88.256 25.8785C87.1692 25.8785 86.4792 26.5138 86.4792 27.339C86.4792 27.8949 86.8553 28.3921 87.773 28.6994C88.3526 28.9204 88.5424 29.0827 88.5424 29.39C88.5424 29.6973 88.3112 29.9182 87.7903 29.9182Z" fill="#0356E8"/>
<path d="M14.4902 0.345279L0 20.4267H4.4402L15.1353 4.44719L17.2054 17.0015L9.48072 17.0637L17.7608 20.4267H22.7427L18.4232 0.345279H14.4902ZM80.3273 0.959876C78.3961 0.356509 76.3885 0.0332635 74.3657 0C69.6909 0 66.158 2.2236 66.158 5.88701C66.158 8.23145 67.5553 9.55387 70.6431 11.6566C72.9546 13.1586 73.8654 13.9976 73.8654 15.32C73.8654 16.4629 73.0167 18.2653 69.9151 18.2653C67.5415 18.2653 65.1713 16.822 64.6848 16.4629C64.4433 16.2212 63.4704 15.7413 63.3462 16.6424L62.8598 19.2838C62.8598 19.5842 62.8598 19.7051 63.1634 19.8259C64.4433 20.368 67.7864 20.7858 70.1566 20.7858C77.4535 20.7858 78.6092 16.2799 78.6092 14.5984C78.6092 11.8362 76.5392 10.272 74.6589 9.01178C72.1645 7.38897 70.8259 6.36694 70.8259 4.98583C70.8259 4.50589 71.0088 2.56888 74.1104 2.56888C75.7243 2.53648 77.3028 3.04444 78.5954 4.01214C78.8404 4.19169 79.8719 4.85117 80.0548 3.5909L80.4791 1.48815C80.5067 1.26027 80.5067 1.08072 80.3273 0.959876ZM35.0869 9.01178C32.5925 7.38897 31.2539 6.36694 31.2539 4.98583C31.2539 4.50589 31.4368 2.56888 34.5384 2.56888C36.1523 2.53648 37.7308 3.04444 39.0234 4.01214C39.2684 4.19169 40.2999 4.85117 40.4828 3.5909L40.9106 1.48815C40.9106 1.24646 40.9106 1.06691 40.7278 0.946064C38.8014 0.348913 36.7997 0.030338 34.7833 0C30.0982 0 26.5653 2.2236 26.5653 5.88701C26.5653 8.23145 27.966 9.55387 31.1263 11.6566C33.3757 13.1586 34.29 13.9976 34.29 15.32C34.29 16.4629 33.4378 18.2653 30.3362 18.2653C28.0247 18.2653 25.6545 16.822 25.106 16.4629C24.8645 16.2212 23.8915 15.7413 23.7673 16.6424L23.2878 19.2838C23.2878 19.5842 23.2878 19.7051 23.5948 19.8259C24.93 20.3715 28.2144 20.7858 30.5846 20.7858C37.8815 20.7858 39.0993 16.2799 39.0993 14.5984C39.0993 11.8362 36.9707 10.272 35.0869 9.01178ZM56.4772 1.38112C54.7384 0.511507 52.8281 0.0397497 50.8847 0C46.2306 0 42.6874 2.2236 42.6874 5.88701C42.6874 8.23145 44.0674 9.55387 47.2483 11.6566C49.5564 13.1586 50.4707 13.9976 50.4707 15.32C50.4707 16.4629 49.6185 18.2653 46.5169 18.2653C44.1467 18.2653 41.7145 16.822 41.1659 16.4008C40.9244 16.2212 40.0101 15.7413 39.8273 16.6424L39.4029 19.2838C39.4029 19.5842 39.4029 19.7051 39.7686 19.8259C41.0555 20.3715 44.3882 20.7858 46.6998 20.7858C54.0587 20.7858 55.2007 16.2799 55.2007 14.5984C55.2007 11.8362 53.0755 10.272 51.2504 9.01178C48.6973 7.38897 47.4174 6.36694 47.4174 4.98583C47.4174 4.50589 47.6002 2.56888 50.6432 2.56888C53.0755 2.56888 59.2165 5.8732 59.2165 5.8732L56.4772 20.4716H61.3452L64.3226 4.61293L56.4772 1.38112ZM81.6625 0.479938L81.2381 3.06262H88.29L84.84 20.4854H89.6424L92.989 3.18347H100.527L101.014 0.479938H81.6625ZM65.1851 0H56.3668L64.5779 3.36302L65.1851 0Z" fill="#0356E8"/>
</g>
<defs>
<clipPath id="clip0_5067_4655">
<rect width="101" height="30.7747" fill="white"/>
</clipPath>
</defs>
</svg>
