<svg width="16" height="20" viewBox="0 0 16 20" fill="none" xmlns="http://www.w3.org/2000/svg">
<path d="M8 19.8504C7.81667 19.8504 7.646 19.8377 7.488 19.8124C7.32933 19.7877 7.18333 19.7504 7.05 19.7004C4.98333 18.9337 3.29167 17.5671 1.975 15.6004C0.658333 13.6337 0 11.4671 0 9.10039V4.37539C0 3.95872 0.121 3.58372 0.363 3.25039C0.604333 2.91706 0.916667 2.67539 1.3 2.52539L7.3 0.275391C7.53333 0.192057 7.76667 0.150391 8 0.150391C8.23333 0.150391 8.46667 0.192057 8.7 0.275391L14.7 2.52539C15.0833 2.67539 15.396 2.91706 15.638 3.25039C15.8793 3.58372 16 3.95872 16 4.37539V9.10039C16 11.4671 15.3417 13.6337 14.025 15.6004C12.7083 17.5671 11.0167 18.9337 8.95 19.7004C8.81667 19.7504 8.67067 19.7877 8.512 19.8124C8.354 19.8377 8.18333 19.8504 8 19.8504ZM8 17.9004C9.61667 17.4004 10.9667 16.4131 12.05 14.9384C13.1333 13.4631 13.7667 11.8171 13.95 10.0004H8V2.12539L2 4.37539V9.55039C2 9.66706 2.01667 9.81706 2.05 10.0004H8V17.9004Z" fill="#596274"/>
</svg>
