<svg width="45" height="45" viewBox="0 0 45 45" fill="none" xmlns="http://www.w3.org/2000/svg">
<path d="M22.3333 35C21.8139 35 21.3788 34.824 21.028 34.472C20.676 34.1212 20.5 33.6861 20.5 33.1666V24H11.3333C10.8139 24 10.3782 23.824 10.0262 23.472C9.67539 23.1212 9.5 22.6861 9.5 22.1666C9.5 21.6472 9.67539 21.2115 10.0262 20.8595C10.3782 20.5087 10.8139 20.3333 11.3333 20.3333H20.5V11.1666C20.5 10.6472 20.676 10.2115 21.028 9.85948C21.3788 9.5087 21.8139 9.33331 22.3333 9.33331C22.8528 9.33331 23.2885 9.5087 23.6405 9.85948C23.9913 10.2115 24.1667 10.6472 24.1667 11.1666V20.3333H33.3333C33.8528 20.3333 34.2879 20.5087 34.6387 20.8595C34.9907 21.2115 35.1667 21.6472 35.1667 22.1666C35.1667 22.6861 34.9907 23.1212 34.6387 23.472C34.2879 23.824 33.8528 24 33.3333 24H24.1667V33.1666C24.1667 33.6861 23.9913 34.1212 23.6405 34.472C23.2885 34.824 22.8528 35 22.3333 35Z" fill="#667085"/>
</svg>
