<svg width="29" height="28" viewBox="0 0 29 28" fill="none" xmlns="http://www.w3.org/2000/svg">
<rect x="0.5" width="28" height="28" rx="14" fill="#1C1C1E" fill-opacity="0.2"/>
<path d="M13.375 21.3332L11.9375 20.0207C10.4652 18.6734 9.13551 17.3365 7.94829 16.0098C6.76051 14.6837 6.16663 13.2221 6.16663 11.6248C6.16663 10.3193 6.60413 9.229 7.47913 8.354C8.35413 7.479 9.4444 7.0415 10.75 7.0415C11.4861 7.0415 12.1805 7.19761 12.8333 7.50984C13.4861 7.82261 14.0416 8.24984 14.5 8.7915C14.9583 8.24984 15.5138 7.82261 16.1666 7.50984C16.8194 7.19761 17.5138 7.0415 18.25 7.0415C19.5555 7.0415 20.6458 7.479 21.5208 8.354C22.3958 9.229 22.8333 10.3193 22.8333 11.6248C22.8333 13.2221 22.243 14.6873 21.0625 16.0207C19.8819 17.354 18.5416 18.6943 17.0416 20.0415L15.625 21.3332C15.3055 21.6387 14.9305 21.7915 14.5 21.7915C14.0694 21.7915 13.6944 21.6387 13.375 21.3332ZM13.7083 10.4582C13.3055 9.88873 12.875 9.45456 12.4166 9.15567C11.9583 8.85734 11.4027 8.70817 10.75 8.70817C9.91663 8.70817 9.22218 8.98595 8.66663 9.5415C8.11107 10.0971 7.83329 10.7915 7.83329 11.6248C7.83329 12.3471 8.09024 13.1143 8.60413 13.9265C9.11802 14.7393 9.73274 15.5276 10.4483 16.2915C11.1633 17.0554 11.8994 17.7707 12.6566 18.4373C13.4133 19.104 14.0277 19.6526 14.5 20.0832C14.9722 19.6526 15.5869 19.104 16.3441 18.4373C17.1008 17.7707 17.8369 17.0554 18.5525 16.2915C19.2675 15.5276 19.8819 14.7393 20.3958 13.9265C20.9097 13.1143 21.1666 12.3471 21.1666 11.6248C21.1666 10.7915 20.8888 10.0971 20.3333 9.5415C19.7777 8.98595 19.0833 8.70817 18.25 8.70817C17.5972 8.70817 17.0416 8.85734 16.5833 9.15567C16.125 9.45456 15.6944 9.88873 15.2916 10.4582C15.1944 10.5971 15.0763 10.7012 14.9375 10.7707C14.7986 10.8401 14.6527 10.8748 14.5 10.8748C14.3472 10.8748 14.2013 10.8401 14.0625 10.7707C13.9236 10.7012 13.8055 10.5971 13.7083 10.4582Z" fill="white"/>
</svg>
