<svg width="28" height="28" viewBox="0 0 28 28" fill="none" xmlns="http://www.w3.org/2000/svg">
<rect width="28" height="28" rx="14" fill="#F1F6FF"/>
<path d="M12.8748 20.4997L11.4373 19.1872C9.96512 17.84 8.63539 16.503 7.44817 15.1763C6.26039 13.8502 5.6665 12.3886 5.6665 10.7913C5.6665 9.48579 6.104 8.39551 6.979 7.52051C7.854 6.64551 8.94428 6.20801 10.2498 6.20801C10.9859 6.20801 11.6804 6.36412 12.3332 6.67634C12.9859 6.98912 13.5415 7.41634 13.9998 7.95801C14.4582 7.41634 15.0137 6.98912 15.6665 6.67634C16.3193 6.36412 17.0137 6.20801 17.7498 6.20801C19.0554 6.20801 20.1457 6.64551 21.0207 7.52051C21.8957 8.39551 22.3332 9.48579 22.3332 10.7913C22.3332 12.3886 21.7429 13.8538 20.5623 15.1872C19.3818 16.5205 18.0415 17.8608 16.5415 19.208L15.1248 20.4997C14.8054 20.7913 14.4304 20.9372 13.9998 20.9372C13.5693 20.9372 13.1943 20.7913 12.8748 20.4997Z" fill="#EF2028"/>
</svg>
