<svg width="29" height="28" viewBox="0 0 29 28" fill="none" xmlns="http://www.w3.org/2000/svg">
<rect x="0.5" width="28" height="28" rx="14" fill="#F1F6FF"/>
<path d="M13.3748 20.4997L11.9373 19.1872C10.4651 17.84 9.13539 16.503 7.94817 15.1763C6.76039 13.8502 6.1665 12.3886 6.1665 10.7913C6.1665 9.48579 6.604 8.39551 7.479 7.52051C8.354 6.64551 9.44428 6.20801 10.7498 6.20801C11.4859 6.20801 12.1804 6.36412 12.8332 6.67634C13.4859 6.98912 14.0415 7.41634 14.4998 7.95801C14.9582 7.41634 15.5137 6.98912 16.1665 6.67634C16.8193 6.36412 17.5137 6.20801 18.2498 6.20801C19.5554 6.20801 20.6457 6.64551 21.5207 7.52051C22.3957 8.39551 22.8332 9.48579 22.8332 10.7913C22.8332 12.3886 22.2429 13.8538 21.0623 15.1872C19.8818 16.5205 18.5415 17.8608 17.0415 19.208L15.6248 20.4997C15.3054 20.7913 14.9304 20.9372 14.4998 20.9372C14.0693 20.9372 13.6943 20.7913 13.3748 20.4997Z" fill="#EF2028"/>
</svg>
