<svg width="28" height="28" viewBox="0 0 28 28" fill="none" xmlns="http://www.w3.org/2000/svg">
<rect width="28" height="28" rx="14" fill="#1C1C1E" fill-opacity="0.2"/>
<path d="M12.8748 21.3333L11.4373 20.0208C9.96512 18.6736 8.63539 17.3367 7.44817 16.01C6.26039 14.6839 5.6665 13.2222 5.6665 11.625C5.6665 10.3194 6.104 9.22916 6.979 8.35416C7.854 7.47916 8.94428 7.04166 10.2498 7.04166C10.9859 7.04166 11.6804 7.19777 12.3332 7.50999C12.9859 7.82277 13.5415 8.24999 13.9998 8.79166C14.4582 8.24999 15.0137 7.82277 15.6665 7.50999C16.3193 7.19777 17.0137 7.04166 17.7498 7.04166C19.0554 7.04166 20.1457 7.47916 21.0207 8.35416C21.8957 9.22916 22.3332 10.3194 22.3332 11.625C22.3332 13.2222 21.7429 14.6875 20.5623 16.0208C19.3818 17.3542 18.0415 18.6944 16.5415 20.0417L15.1248 21.3333C14.8054 21.6389 14.4304 21.7917 13.9998 21.7917C13.5693 21.7917 13.1943 21.6389 12.8748 21.3333ZM13.2082 10.4583C12.8054 9.88888 12.3748 9.45471 11.9165 9.15582C11.4582 8.85749 10.9026 8.70832 10.2498 8.70832C9.4165 8.70832 8.72206 8.9861 8.1665 9.54166C7.61095 10.0972 7.33317 10.7917 7.33317 11.625C7.33317 12.3472 7.59012 13.1144 8.104 13.9267C8.61789 14.7394 9.23262 15.5278 9.94817 16.2917C10.6632 17.0555 11.3993 17.7708 12.1565 18.4375C12.9132 19.1042 13.5276 19.6528 13.9998 20.0833C14.4721 19.6528 15.0868 19.1042 15.844 18.4375C16.6007 17.7708 17.3368 17.0555 18.0523 16.2917C18.7673 15.5278 19.3818 14.7394 19.8957 13.9267C20.4096 13.1144 20.6665 12.3472 20.6665 11.625C20.6665 10.7917 20.3887 10.0972 19.8332 9.54166C19.2776 8.9861 18.5832 8.70832 17.7498 8.70832C17.0971 8.70832 16.5415 8.85749 16.0832 9.15582C15.6248 9.45471 15.1943 9.88888 14.7915 10.4583C14.6943 10.5972 14.5762 10.7014 14.4373 10.7708C14.2984 10.8403 14.1526 10.875 13.9998 10.875C13.8471 10.875 13.7012 10.8403 13.5623 10.7708C13.4234 10.7014 13.3054 10.5972 13.2082 10.4583Z" fill="white"/>
</svg>
