<svg width="236" height="194" viewBox="0 0 236 194" fill="none" xmlns="http://www.w3.org/2000/svg">
<path d="M19.3774 178.451C45.1664 178.451 70.9758 178.451 96.7648 178.451C122.432 178.451 148.079 178.451 173.746 178.451C188.193 178.451 202.64 178.451 217.107 178.451C217.492 178.451 217.492 177.906 217.107 177.906C191.318 177.906 165.509 177.906 139.72 177.906C114.052 177.906 88.4052 177.906 62.7379 177.906C48.2911 177.906 33.8444 177.906 19.3774 177.906C18.9715 177.906 18.9715 178.451 19.3774 178.451Z" fill="#E8E8E8"/>
<path d="M63.5899 182.355C82.6223 182.355 101.675 182.355 120.707 182.355C126.105 182.355 131.502 182.355 136.919 182.355C137.305 182.355 137.305 181.811 136.919 181.811C117.887 181.811 98.8343 181.811 79.8019 181.811C74.4047 181.811 69.0074 181.811 63.5899 181.811C63.2044 181.811 63.2044 182.355 63.5899 182.355Z" fill="#E8E8E8"/>
<path d="M127.505 186.242C145.827 186.242 164.149 186.242 182.451 186.242C187.666 186.242 192.86 186.242 198.075 186.242C198.46 186.242 198.46 185.697 198.075 185.697C179.752 185.697 161.43 185.697 143.128 185.697C137.914 185.697 132.719 185.697 127.505 185.697C127.119 185.697 127.119 186.242 127.505 186.242Z" fill="#E8E8E8"/>
<path d="M22.5832 183.174C30.2935 183.174 38.0038 183.174 45.7142 183.174C46.0997 183.174 46.0997 182.629 45.7142 182.629C38.0038 182.629 30.2935 182.629 22.5832 182.629C22.1774 182.629 22.1774 183.174 22.5832 183.174Z" fill="#E8E8E8"/>
<path d="M38.572 161.63C39.4039 167.061 40.7837 172.419 42.7113 177.614C42.833 177.941 43.4214 177.796 43.2997 177.469C41.3721 172.256 39.9924 166.916 39.1605 161.484C39.0996 161.139 38.5112 161.285 38.572 161.63Z" fill="#E8E8E8"/>
<path d="M38.8155 161.847C46.0389 164.227 53.9724 164.481 61.3784 162.574C61.7639 162.483 61.6016 161.956 61.2161 162.047C53.9115 163.936 46.12 163.664 38.9778 161.32C38.6126 161.193 38.4503 161.72 38.8155 161.847Z" fill="#E8E8E8"/>
<path d="M60.9929 162.411C60.5262 167.697 59.7146 172.928 58.5174 178.123C58.4363 178.469 59.0247 178.614 59.1059 178.269C60.3233 173.037 61.1552 167.752 61.6016 162.411C61.6421 162.066 61.0334 162.066 60.9929 162.411Z" fill="#E8E8E8"/>
<path d="M45.2475 162.793C43.0155 161.103 41.5546 158.815 41.0474 156.235C40.9865 156.344 40.9053 156.453 40.8445 156.562C41.372 156.453 41.7778 156.508 42.2445 156.744C42.5083 156.889 42.7923 156.599 42.6706 156.362C42.3256 155.781 42.001 155.218 41.6561 154.637C41.4937 154.346 41.3111 154.074 41.1488 153.783C40.885 153.275 40.6213 151.949 41.7169 152.148C41.9604 152.185 42.143 152.021 42.0822 151.821C41.372 148.643 40.6821 145.409 40.4589 142.176C40.3575 140.687 40.3778 139.161 40.7633 137.689C40.9459 136.981 41.2097 136.291 41.5546 135.637C41.7981 135.183 41.9604 134.62 42.772 134.983C43.0561 135.11 43.3402 135.437 43.5634 135.655C45.6938 137.653 46.7895 140.341 47.5809 142.957C48.5142 145.954 49.2852 149.006 49.9548 152.058C50.7664 155.763 51.2534 159.523 51.1114 163.319C51.0911 163.665 51.6998 163.665 51.7201 163.319C51.8621 159.614 51.3752 155.908 50.6041 152.257C49.8737 148.77 49.0012 145.264 47.8446 141.867C46.9316 139.179 45.5924 136.345 43.0764 134.529C40.7227 132.84 39.8705 138.87 39.8096 140.033C39.627 143.993 40.601 148.098 41.4735 151.967C41.5952 151.858 41.7169 151.749 41.8387 151.64C40.9459 151.476 40.256 152.076 40.2154 152.875C40.1952 153.456 40.5401 154.001 40.8242 154.492C41.2503 155.218 41.6561 155.927 42.0822 156.653C42.2242 156.526 42.3662 156.399 42.5083 156.272C41.8995 155.963 41.3111 155.89 40.6415 156.036C40.4792 156.072 40.3981 156.235 40.4386 156.362C40.9662 159.014 42.488 161.412 44.7808 163.156C45.1257 163.392 45.5518 163.011 45.2475 162.793Z" fill="#E8E8E8"/>
<path d="M50.7665 152.33C50.7056 150.35 51.7404 148.57 52.8361 146.899C53.9115 145.246 55.1492 143.684 56.5087 142.195C56.3463 142.158 56.1637 142.122 56.0014 142.068C56.1028 142.322 56.2043 142.594 56.326 142.849C56.4072 143.067 56.7318 143.121 56.8739 142.921C58.4565 140.832 60.1609 138.834 62.0073 136.927C61.8247 136.854 61.6624 136.8 61.4798 136.727C61.561 139.343 61.3378 141.94 60.7493 144.502C60.2827 146.5 59.816 149.66 57.442 150.568C57.1377 150.696 57.3406 151.041 57.6043 151.077C59.8971 151.331 57.4217 155.328 56.9956 156.363C56.042 158.67 55.2101 161.031 54.3985 163.374C54.2767 163.701 54.8651 163.847 54.9869 163.52C55.9608 160.759 56.9145 157.961 58.1319 155.273C58.4768 154.528 59.0044 153.784 59.187 152.984C59.4305 151.876 59.0044 150.677 57.6246 150.532C57.6855 150.696 57.7261 150.877 57.7869 151.041C60.1406 150.133 60.7088 147.299 61.216 145.319C61.9262 142.503 62.2305 139.615 62.1291 136.727C62.1291 136.509 61.7841 136.346 61.6015 136.527C59.7348 138.471 57.9898 140.505 56.3666 142.631C56.5492 142.649 56.7318 142.667 56.9145 142.703C56.813 142.449 56.7116 142.176 56.5898 141.922C56.5289 141.741 56.2449 141.632 56.0826 141.795C54.6216 143.394 53.2825 145.083 52.1462 146.881C51.0708 148.552 50.1172 150.332 50.1781 152.312C50.1578 152.694 50.7665 152.694 50.7665 152.33Z" fill="#E8E8E8"/>
<path d="M39.0185 161.776C39.7084 161.576 40.4997 161.848 41.1896 161.939C41.9606 162.03 42.7317 162.085 43.5027 162.103C43.8882 162.103 43.8882 161.558 43.5027 161.558C42.5288 161.54 41.5751 161.467 40.6215 161.304C40.0128 161.213 39.4649 161.067 38.8562 161.249C38.491 161.358 38.633 161.885 39.0185 161.776Z" fill="#E8E8E8"/>
<path d="M55.3116 162.502C57.3001 162.539 59.2885 162.611 61.2567 162.72C61.6422 162.739 61.6422 162.194 61.2567 162.175C59.2682 162.066 57.3001 161.994 55.3116 161.957C54.9261 161.939 54.9261 162.484 55.3116 162.502Z" fill="#E8E8E8"/>
<path d="M41.4533 162.211C42.2853 162.393 43.1172 162.575 43.9288 162.738C44.3143 162.829 44.4766 162.302 44.0911 162.211C43.2592 162.03 42.4273 161.848 41.6157 161.685C41.2302 161.612 41.0678 162.139 41.4533 162.211Z" fill="#E8E8E8"/>
<path d="M55.2913 162.157C54.8246 162.248 54.6826 162.811 55.1493 163.011C55.5957 163.193 56.5087 162.975 56.9754 162.956C57.6856 162.92 58.3957 162.866 59.1059 162.829C59.4914 162.811 59.4914 162.266 59.1059 162.284C58.4566 162.321 57.787 162.357 57.1377 162.412C56.8334 162.43 56.529 162.448 56.2247 162.466C56.0826 162.484 55.9203 162.484 55.7783 162.502C55.5145 162.43 55.4131 162.502 55.4739 162.702C55.8392 162.611 55.6768 162.085 55.2913 162.157Z" fill="#E8E8E8"/>
<path d="M41.8592 174.618C42.7113 175.98 43.8476 177.179 45.2274 178.141C45.5317 178.359 45.9578 177.978 45.6534 177.76C44.3143 176.815 43.2186 175.689 42.3867 174.345C42.2041 174.018 41.6765 174.309 41.8592 174.618Z" fill="#E8E8E8"/>
<path d="M39.6473 166.988C42.5894 171.203 46.2416 174.963 50.5229 178.141C50.8273 178.359 51.2534 177.978 50.949 177.76C46.7083 174.617 43.0763 170.912 40.1545 166.716C39.9719 166.407 39.4444 166.68 39.6473 166.988Z" fill="#E8E8E8"/>
<path d="M40.7837 162.266C42.7315 165.354 44.7606 168.442 47.4592 171.057C50.2999 173.8 53.7289 176.125 57.0565 178.341C57.3812 178.559 57.6653 178.069 57.3609 177.869C54.0536 175.671 50.6854 173.382 47.8853 170.676C45.2273 168.096 43.2388 165.027 41.3112 161.993C41.1083 161.684 40.5808 161.957 40.7837 162.266Z" fill="#E8E8E8"/>
<path d="M46.749 163.501C49.9143 167.987 54.2158 171.747 59.329 174.454C59.674 174.635 59.9783 174.163 59.6334 173.982C54.6217 171.311 50.381 167.624 47.2765 163.21C47.0534 162.938 46.5258 163.21 46.749 163.501Z" fill="#E8E8E8"/>
<path d="M53.6477 163.828C55.3521 166.063 57.4014 168.061 59.7754 169.732C60.0797 169.95 60.5058 169.568 60.2015 169.35C57.8681 167.697 55.839 165.754 54.1752 163.556C53.952 163.265 53.4245 163.538 53.6477 163.828Z" fill="#E8E8E8"/>
<path d="M58.071 163.374C58.842 164.354 59.7145 165.226 60.6884 166.026C60.9725 166.262 61.4189 165.88 61.1145 165.644C60.1609 164.881 59.329 164.028 58.5782 163.101C58.3753 162.829 57.8275 163.101 58.071 163.374Z" fill="#E8E8E8"/>
<path d="M173.97 163.956C174.639 168.752 175.654 173.511 177.074 178.179C177.175 178.524 177.764 178.379 177.662 178.034C176.262 173.42 175.248 168.715 174.578 163.956C174.517 163.611 173.909 163.611 173.97 163.956Z" fill="#E8E8E8"/>
<path d="M174.315 164.082C179.793 165.427 185.556 165.445 191.034 164.137C191.419 164.046 191.257 163.519 190.872 163.61C185.495 164.9 179.854 164.882 174.477 163.556C174.092 163.465 173.949 163.974 174.315 164.082Z" fill="#E8E8E8"/>
<path d="M190.729 163.956C190.384 168.788 189.35 173.529 187.625 178.106C187.503 178.433 188.092 178.578 188.213 178.251C189.938 173.62 190.993 168.824 191.338 163.956C191.358 163.611 190.75 163.611 190.729 163.956Z" fill="#E8E8E8"/>
<path d="M179.367 164.446C178.312 163.193 177.48 161.812 176.973 160.305C176.729 159.578 176.547 158.851 176.425 158.089C176.323 157.398 175.877 155.963 177.033 156C177.216 156 177.399 155.818 177.318 155.655C177.054 154.928 176.891 154.238 176.851 153.475C176.77 153.566 176.709 153.656 176.628 153.729C177.216 153.547 177.46 153.13 177.561 152.603C177.764 151.549 177.663 150.387 177.683 149.315C177.764 146.845 177.825 144.374 177.906 141.886C177.744 141.959 177.602 142.049 177.439 142.122C179.225 143.212 180.057 145.428 180.747 147.19C181.457 149.043 181.944 150.968 182.248 152.894C182.877 156.853 182.816 160.868 182.593 164.864C182.573 165.209 183.181 165.209 183.202 164.864C183.425 160.613 183.486 156.327 182.715 152.131C182.329 150.042 181.761 147.971 180.889 146.009C180.179 144.411 179.387 142.667 177.744 141.668C177.541 141.541 177.297 141.704 177.277 141.904C177.216 143.793 177.176 145.682 177.115 147.553C177.094 148.498 177.054 149.442 177.033 150.387C177.013 150.986 177.297 152.948 176.445 153.22C176.323 153.257 176.222 153.366 176.222 153.475C176.262 154.274 176.425 155.037 176.709 155.8C176.81 155.691 176.912 155.564 176.993 155.455C176.384 155.437 175.755 155.564 175.654 156.145C175.512 157.071 175.755 158.198 175.958 159.124C176.425 161.158 177.419 163.066 178.799 164.737C179.063 165.009 179.59 164.737 179.367 164.446Z" fill="#E8E8E8"/>
<path d="M182.897 152.076C183.425 150.441 184.034 148.824 184.663 147.226C184.521 147.28 184.358 147.335 184.216 147.389C184.419 147.498 184.622 147.625 184.845 147.734C184.987 147.807 185.17 147.753 185.271 147.644C186.732 145.464 188.193 143.302 189.654 141.123C189.471 141.068 189.269 141.032 189.086 140.977C189.958 149.006 188.538 157.144 184.967 164.573C184.805 164.9 185.332 165.172 185.495 164.845C189.106 157.343 190.567 149.115 189.695 140.977C189.674 140.723 189.289 140.596 189.127 140.832C187.666 143.012 186.205 145.173 184.744 147.353C184.886 147.317 185.028 147.28 185.17 147.262C184.967 147.153 184.764 147.026 184.541 146.917C184.358 146.826 184.155 146.917 184.095 147.08C183.445 148.679 182.857 150.296 182.329 151.93C182.208 152.257 182.796 152.403 182.897 152.076Z" fill="#E8E8E8"/>
<path d="M174.599 164.1C175.755 164.136 176.892 164.191 178.048 164.227C178.434 164.245 178.434 163.7 178.048 163.682C176.892 163.646 175.755 163.591 174.599 163.555C174.213 163.537 174.213 164.082 174.599 164.1Z" fill="#E8E8E8"/>
<path d="M177.419 164.209C177.805 164.355 178.21 164.482 178.616 164.536C179.002 164.591 179.164 164.064 178.778 164.01C178.413 163.955 178.048 163.864 177.723 163.737C177.358 163.61 177.054 164.064 177.419 164.209Z" fill="#E8E8E8"/>
<path d="M185.799 164.41C187.483 164.192 189.147 164.046 190.851 163.956C191.237 163.937 191.237 163.392 190.851 163.411C189.106 163.501 187.361 163.647 185.636 163.883C185.251 163.937 185.413 164.464 185.799 164.41Z" fill="#E8E8E8"/>
<path d="M185.596 164.664C186.489 164.536 187.402 164.464 188.315 164.391C188.701 164.373 188.701 163.828 188.315 163.846C187.341 163.901 186.387 164.01 185.434 164.137C185.048 164.191 185.211 164.7 185.596 164.664Z" fill="#E8E8E8"/>
<path d="M174.822 166.734C176.161 166.698 177.257 167.407 178.555 167.57C179.996 167.752 180.889 166.68 182.248 166.698C183.608 166.716 184.785 167.516 186.164 167.516C186.773 167.516 187.382 167.407 187.93 167.189C188.741 166.898 189.492 166.317 190.405 166.644C190.77 166.771 190.932 166.244 190.567 166.117C189.309 165.681 188.295 166.607 187.118 166.862C185.454 167.225 184.135 166.335 182.553 166.171C181.071 166.026 180.037 167.207 178.596 167.025C177.297 166.843 176.181 166.153 174.822 166.208C174.416 166.208 174.416 166.753 174.822 166.734Z" fill="#E8E8E8"/>
<path d="M175.086 169.605C179.996 171.349 185.494 171.403 190.445 169.75C190.811 169.623 190.648 169.096 190.283 169.224C185.413 170.84 180.077 170.786 175.248 169.078C174.883 168.951 174.72 169.478 175.086 169.605Z" fill="#E8E8E8"/>
<path d="M1.05518 91.6611C1.05518 102.723 1.05518 113.767 1.05518 124.829C1.05518 125.174 1.66389 125.174 1.66389 124.829C1.66389 113.767 1.66389 102.723 1.66389 91.6611C1.66389 91.2978 1.05518 91.2978 1.05518 91.6611Z" fill="#E8E8E8"/>
<path d="M1.46101 91.8613C9.88152 91.8613 18.302 91.8613 26.7225 91.8613C27.108 91.8613 27.108 91.3164 26.7225 91.3164C18.302 91.3164 9.88152 91.3164 1.46101 91.3164C1.0755 91.3164 1.0755 91.8613 1.46101 91.8613Z" fill="#E8E8E8"/>
<path d="M26.7832 91.5889C26.7832 102.56 26.7832 113.531 26.7832 124.521C26.7832 124.866 27.3919 124.866 27.3919 124.521C27.3919 113.55 27.3919 102.578 27.3919 91.5889C27.3919 91.2256 26.7832 91.2256 26.7832 91.5889Z" fill="#E8E8E8"/>
<path d="M1.64363 125.174C10.0844 125.174 18.5455 125.174 26.9863 125.174C27.3718 125.174 27.3718 124.629 26.9863 124.629C18.5455 124.629 10.0844 124.629 1.64363 124.629C1.25811 124.629 1.25811 125.174 1.64363 125.174Z" fill="#E8E8E8"/>
<path d="M24.8151 94.368C24.5108 94.2954 24.1861 94.0774 24.2064 93.7504C24.2267 93.3871 24.6325 93.1692 24.9977 93.3145C25.3021 93.4416 25.5456 93.7504 25.4847 94.0411C25.4644 94.3135 25.0789 94.5497 24.8151 94.368C24.5108 94.1319 24.0644 94.5133 24.3687 94.7495C24.876 95.1128 25.6267 94.9856 25.9717 94.477C26.3369 93.8958 25.9311 93.151 25.3224 92.8604C24.6731 92.5516 23.8818 92.8422 23.6586 93.478C23.4354 94.1137 23.9629 94.7495 24.6528 94.8948C25.0383 94.9675 25.2006 94.4407 24.8151 94.368Z" fill="#E8E8E8"/>
<path d="M24.0037 122.323C23.7196 122.105 23.6384 121.669 23.9225 121.415C24.2268 121.124 24.795 121.215 25.0182 121.542C25.1602 121.76 25.3631 122.323 25.0182 122.486C24.8356 122.577 24.5921 122.432 24.45 122.341C24.2471 122.232 24.0442 122.141 23.821 122.069C23.4558 121.942 23.2935 122.468 23.6587 122.595C24.0442 122.723 24.3486 122.977 24.7544 123.05C25.079 123.104 25.424 122.977 25.6066 122.741C25.9921 122.232 25.7689 121.415 25.3022 120.997C24.795 120.561 23.8819 120.597 23.4355 121.088C22.9891 121.56 23.0703 122.305 23.5776 122.704C23.8616 122.959 24.308 122.559 24.0037 122.323Z" fill="#E8E8E8"/>
<path d="M3.0638 93.841C8.1161 93.8229 13.1684 93.8229 18.2004 93.8047C18.5859 93.8047 18.5859 93.2598 18.2004 93.2598C13.1481 93.2779 8.09581 93.2779 3.0638 93.2961C2.67828 93.2961 2.67828 93.841 3.0638 93.841Z" fill="#E8E8E8"/>
<path d="M3.0638 95.1489C5.13341 95.276 7.24361 95.5667 9.31323 95.2215C9.69875 95.1489 9.53642 94.6403 9.15091 94.6948C7.16245 95.0217 5.07254 94.7311 3.0638 94.604C2.67828 94.5858 2.67828 95.1307 3.0638 95.1489Z" fill="#E8E8E8"/>
<path d="M3.36829 122.921C3.20597 122.867 3.1451 122.667 3.16539 122.522C3.20597 122.322 3.42916 122.249 3.63207 122.285C3.89584 122.322 4.09875 122.485 4.11904 122.721C4.13933 122.903 3.89584 123.194 3.67265 123.03C3.36829 122.812 2.94219 123.194 3.24655 123.412C3.73352 123.757 4.46397 123.593 4.68717 123.048C4.89007 122.522 4.52484 121.94 3.93642 121.777C3.40887 121.632 2.77987 121.831 2.61755 122.322C2.45523 122.776 2.719 123.285 3.22626 123.43C3.59149 123.557 3.75381 123.048 3.36829 122.921Z" fill="#E8E8E8"/>
<path d="M3.73347 99.5449C9.151 99.5449 14.5888 99.5449 20.0063 99.5449C20.3919 99.5449 20.3919 99 20.0063 99C14.5888 99 9.151 99 3.73347 99C3.34796 99 3.34796 99.5449 3.73347 99.5449Z" fill="#E8E8E8"/>
<path d="M4.64656 101.342C8.90754 101.342 13.1888 101.342 17.4498 101.342C17.8353 101.342 17.8353 100.797 17.4498 100.797C13.1888 100.797 8.90754 100.797 4.64656 100.797C4.26104 100.797 4.26104 101.342 4.64656 101.342Z" fill="#E8E8E8"/>
<path d="M4.46394 104.467C8.58289 104.467 12.7018 104.467 16.8005 104.467C17.186 104.467 17.186 103.922 16.8005 103.922C12.6815 103.922 8.5626 103.922 4.46394 103.922C4.07843 103.922 4.07843 104.467 4.46394 104.467Z" fill="#E8E8E8"/>
<path d="M0.608711 76.42C0.608711 75.6026 0.608711 74.7852 0.608711 73.9678C0.608711 73.6227 0 73.6227 0 73.9678C0 74.7852 0 75.6026 0 76.42C0 76.7651 0.608711 76.7651 0.608711 76.42Z" fill="#E8E8E8"/>
<path d="M0.507399 73.9141C17.7542 73.9141 35.001 73.9141 52.2478 73.9141C57.0972 73.9141 61.9466 73.9141 66.796 73.9141C67.1815 73.9141 67.1815 73.3691 66.796 73.3691C49.5492 73.3691 32.3024 73.3691 15.0556 73.3691C10.2062 73.3691 5.3568 73.3691 0.507399 73.3691C0.121882 73.3691 0.121882 73.9141 0.507399 73.9141Z" fill="#E8E8E8"/>
<path d="M0.365147 76.7481C17.6525 76.7481 34.9399 76.7481 52.2273 76.7481C57.1376 76.7481 62.0479 76.7481 66.9581 76.7481C67.3437 76.7481 67.3437 76.2031 66.9581 76.2031C49.6707 76.2031 32.3833 76.2031 15.096 76.2031C10.1857 76.2031 5.27542 76.2031 0.365147 76.2031C-0.0406608 76.2031 -0.0406608 76.7481 0.365147 76.7481Z" fill="#E8E8E8"/>
<path d="M66.7351 73.6592C66.7351 74.513 66.7351 75.3667 66.7351 76.2204C66.7351 76.5655 67.3438 76.5655 67.3438 76.2204C67.3438 75.3667 67.3438 74.513 67.3438 73.6592C67.3438 73.3141 66.7351 73.3141 66.7351 73.6592Z" fill="#E8E8E8"/>
<path d="M33.0125 73.496C33.0125 72.17 33.0125 70.8622 33.0125 69.5362C33.0125 69.1911 32.4038 69.1911 32.4038 69.5362C32.4038 70.8622 32.4038 72.17 32.4038 73.496C32.4038 73.8412 33.0125 73.8412 33.0125 73.496Z" fill="#E8E8E8"/>
<path d="M34.8589 69.1904C34.8589 70.5164 34.8589 71.8243 34.8589 73.1503C34.8589 73.4954 35.4676 73.4954 35.4676 73.1503C35.4676 71.8243 35.4676 70.5164 35.4676 69.1904C35.4676 68.8271 34.8589 68.8271 34.8589 69.1904Z" fill="#E8E8E8"/>
<path d="M35.1834 69.4629C39.8908 69.4629 44.5982 69.4629 49.3258 69.4629C49.7113 69.4629 49.7113 68.918 49.3258 68.918C44.6184 68.918 39.9111 68.918 35.1834 68.918C34.7979 68.918 34.7979 69.4629 35.1834 69.4629Z" fill="#E8E8E8"/>
<path d="M49.7113 69.1189C49.7113 63.942 49.7113 58.7834 49.7113 53.6065C49.7113 53.2614 49.1025 53.2614 49.1025 53.6065C49.1025 58.7834 49.1025 63.942 49.1025 69.1189C49.1025 69.464 49.7113 69.464 49.7113 69.1189Z" fill="#E8E8E8"/>
<path d="M49.4072 53.2969C39.546 53.2969 29.6849 53.2969 19.8238 53.2969C19.4383 53.2969 19.4383 53.8418 19.8238 53.8418C29.6849 53.8418 39.546 53.8418 49.4072 53.8418C49.7927 53.8418 49.7927 53.2969 49.4072 53.2969Z" fill="#E8E8E8"/>
<path d="M19.3774 53.6065C19.3774 58.3656 19.3774 63.1428 19.3774 67.9019C19.3774 68.247 19.9862 68.247 19.9862 67.9019C19.9862 63.1428 19.9862 58.3656 19.9862 53.6065C19.9862 53.2614 19.3774 53.2614 19.3774 53.6065Z" fill="#E8E8E8"/>
<path d="M32.6674 69.209C28.3659 69.209 24.0643 69.209 19.783 69.209C19.3975 69.209 19.3975 69.7539 19.783 69.7539C24.0846 69.7539 28.3862 69.7539 32.6674 69.7539C33.0529 69.7539 33.0529 69.209 32.6674 69.209Z" fill="#E8E8E8"/>
<path d="M19.3774 67.4112C19.3774 68.0106 19.3774 68.6282 19.3774 69.2276C19.3774 69.5728 19.9862 69.5728 19.9862 69.2276C19.9862 68.6282 19.9862 68.0106 19.9862 67.4112C19.9862 67.0661 19.3774 67.0661 19.3774 67.4112Z" fill="#E8E8E8"/>
<path d="M21.1426 54.8233C21.1426 59.1283 21.1426 63.4332 21.1426 67.7382C21.1426 68.0833 21.7513 68.0833 21.7513 67.7382C21.7513 63.4332 21.7513 59.1283 21.7513 54.8233C21.7513 54.4782 21.1426 54.4782 21.1426 54.8233Z" fill="#E8E8E8"/>
<path d="M21.5282 68.0469C30.111 68.0469 38.6938 68.0469 47.2766 68.0469C47.6621 68.0469 47.6621 67.502 47.2766 67.502C38.6938 67.502 30.111 67.502 21.5282 67.502C21.1426 67.502 21.1426 68.0469 21.5282 68.0469Z" fill="#E8E8E8"/>
<path d="M47.6824 67.503C47.6824 63.4342 47.6824 59.3472 47.6824 55.2784C47.6824 54.9333 47.0737 54.9333 47.0737 55.2784C47.0737 59.3472 47.0737 63.4342 47.0737 67.503C47.0737 67.8481 47.6824 67.8481 47.6824 67.503Z" fill="#E8E8E8"/>
<path d="M21.589 55.0606C30.1921 55.0606 38.775 55.0606 47.3781 55.0606C47.7636 55.0606 47.7636 54.5156 47.3781 54.5156C38.775 54.5156 30.1921 54.5156 21.589 54.5156C21.1832 54.5156 21.1832 55.0606 21.589 55.0606Z" fill="#E8E8E8"/>
<path d="M47.0127 55.0596C47.0127 55.0959 47.0127 55.1322 47.0127 55.1867C47.0127 55.332 47.1547 55.4592 47.3171 55.4592C47.4794 55.4592 47.6214 55.332 47.6214 55.1867C47.6214 55.1504 47.6214 55.1141 47.6214 55.0596C47.6214 54.9143 47.4794 54.7871 47.3171 54.7871C47.1547 54.8053 47.0127 54.9143 47.0127 55.0596Z" fill="#E8E8E8"/>
<path d="M169.019 84.1953C171.717 84.8855 174.639 84.9582 177.399 85.2306C180.523 85.5394 183.648 85.83 186.773 86.1388C192.961 86.7383 199.13 87.3195 205.318 87.919C205.704 87.9553 205.704 87.4104 205.318 87.374C199.272 86.7928 193.225 86.2115 187.179 85.6302C184.196 85.3396 181.193 85.049 178.21 84.7765C175.228 84.4859 172.062 84.4314 169.181 83.6866C168.816 83.5777 168.654 84.1044 169.019 84.1953Z" fill="black"/>
<path d="M212.42 75.8214C210.431 79.872 208.098 83.7774 205.44 87.5193C205.237 87.8099 205.765 88.0824 205.967 87.7917C208.626 84.0499 210.959 80.1445 212.947 76.0938C213.11 75.7851 212.582 75.5126 212.42 75.8214Z" fill="black"/>
<path d="M169.384 84.0133C173.523 81.3432 177.541 78.5095 181.376 75.5124C181.68 75.2763 181.234 74.8948 180.95 75.1309C177.135 78.0917 173.178 80.9072 169.08 83.5411C168.775 83.7409 169.08 84.2313 169.384 84.0133Z" fill="black"/>
<path d="M181.295 75.4409C186.448 74.8959 191.663 75.2592 196.837 75.4954C202.092 75.7315 207.368 75.9676 212.623 76.2038C213.008 76.222 213.008 75.677 212.623 75.6589C207.368 75.4227 202.092 75.1866 196.837 74.9504C191.663 74.7143 186.448 74.351 181.295 74.8959C180.909 74.9323 180.909 75.4772 181.295 75.4409Z" fill="black"/>
<path d="M187.909 78.8913C187.584 79.3818 187.239 79.854 186.915 80.3445C186.793 80.508 186.955 80.7623 187.178 80.7623C187.909 80.7441 188.639 80.7441 189.37 80.8349C189.776 80.8713 190.466 81.1256 190.892 80.9984C191.541 80.7986 191.987 79.7269 192.251 79.2546C192.434 78.9458 191.906 78.6734 191.724 78.9822C191.541 79.2909 191.358 79.6906 191.115 79.963C190.689 80.4171 190.283 80.4171 189.674 80.3263C188.842 80.2173 188.01 80.1992 187.178 80.2173C187.26 80.3626 187.361 80.4898 187.442 80.6351C187.767 80.1447 188.112 79.6724 188.436 79.182C188.639 78.8732 188.112 78.6007 187.909 78.8913Z" fill="#E8E8E8"/>
<path d="M188.315 79.1642C189.492 78.8917 190.628 78.8917 191.764 79.3277C192.13 79.473 192.434 79.0007 192.069 78.8554C190.77 78.3468 189.492 78.3105 188.132 78.6374C187.767 78.7283 187.929 79.255 188.315 79.1642Z" fill="#E8E8E8"/>
<path d="M178.941 79.5811C180.016 79.5447 181.051 79.6356 182.086 79.8717C182.471 79.9625 182.634 79.4358 182.248 79.3449C181.152 79.1088 180.057 78.9998 178.941 79.0361C178.555 79.0543 178.555 79.5992 178.941 79.5811Z" fill="#E8E8E8"/>
<path d="M179.063 79.3445C179.712 78.7087 180.402 78.1093 181.112 77.528C181.396 77.2919 180.97 76.9104 180.686 77.1466C179.976 77.7278 179.306 78.3454 178.636 78.963C178.373 79.2173 178.799 79.6169 179.063 79.3445Z" fill="#E8E8E8"/>
<path d="M180.706 77.5474C181.599 77.947 182.755 77.838 183.749 77.8562C184.135 77.8744 184.135 77.3294 183.749 77.3113C182.918 77.2931 181.781 77.4203 181.01 77.0751C180.665 76.9298 180.361 77.3839 180.706 77.5474Z" fill="#E8E8E8"/>
<path d="M183.303 77.511C182.816 78.1104 182.329 78.728 181.883 79.3637C181.68 79.6544 182.207 79.9268 182.41 79.6362C182.857 79.0005 183.323 78.3829 183.831 77.7834C184.054 77.4928 183.526 77.2203 183.303 77.511Z" fill="#E8E8E8"/>
<path d="M208.098 51.8076C208.098 57.3114 208.098 62.8334 208.098 68.3372C208.098 68.6824 208.707 68.6824 208.707 68.3372C208.707 62.8334 208.707 57.3114 208.707 51.8076C208.707 51.4443 208.098 51.4443 208.098 51.8076Z" fill="#E8E8E8"/>
<path d="M208.544 68.6094C217.411 68.6094 226.298 68.6094 235.165 68.6094C235.551 68.6094 235.551 68.0645 235.165 68.0645C226.298 68.0645 217.411 68.0645 208.544 68.0645C208.139 68.0645 208.139 68.6094 208.544 68.6094Z" fill="#E8E8E8"/>
<path d="M235.49 68.3011C235.429 62.8155 235.348 57.3298 235.287 51.8624C235.287 51.5172 234.678 51.5172 234.678 51.8624C234.739 57.348 234.82 62.8337 234.881 68.3011C234.881 68.6463 235.49 68.6463 235.49 68.3011Z" fill="#E8E8E8"/>
<path d="M208.483 51.9356C217.188 51.9356 225.893 51.9356 234.577 51.9356C234.962 51.9356 234.962 51.3906 234.577 51.3906C225.872 51.3906 217.168 51.3906 208.483 51.3906C208.098 51.3906 208.098 51.9356 208.483 51.9356Z" fill="#E8E8E8"/>
<path d="M221.55 51.4081C221.469 50.9176 221.49 50.409 221.652 49.9186C221.774 49.5008 222.2 48.5199 222.89 48.8287C223.295 49.0104 223.417 49.6643 223.478 50.0276C223.559 50.518 223.559 51.0085 223.498 51.4989C223.458 51.844 224.066 51.844 224.107 51.4989C224.208 50.5907 224.208 48.1022 222.545 48.2293C221.003 48.3565 220.8 50.5544 220.962 51.5534C221.023 51.8985 221.611 51.7532 221.55 51.4081Z" fill="#E8E8E8"/>
<path d="M176.425 21.419C176.425 28.1035 176.425 34.7698 176.425 41.4543C176.425 41.7995 177.034 41.7995 177.034 41.4543C177.034 34.7698 177.034 28.1035 177.034 21.419C177.034 21.0739 176.425 21.0739 176.425 21.419Z" fill="#E8E8E8"/>
<path d="M176.912 41.7266C187.666 41.7266 198.399 41.7266 209.153 41.7266C209.539 41.7266 209.539 41.1816 209.153 41.1816C198.399 41.1816 187.666 41.1816 176.912 41.1816C176.526 41.1816 176.526 41.7266 176.912 41.7266Z" fill="#E8E8E8"/>
<path d="M209.498 41.4C209.417 34.7519 209.336 28.1219 209.255 21.4737C209.255 21.1286 208.646 21.1286 208.646 21.4737C208.727 28.1219 208.808 34.7519 208.889 41.4C208.889 41.7452 209.498 41.7452 209.498 41.4Z" fill="#E8E8E8"/>
<path d="M176.851 21.5274C187.382 21.5274 197.933 21.5274 208.463 21.5274C208.849 21.5274 208.849 20.9824 208.463 20.9824C197.933 20.9824 187.382 20.9824 176.851 20.9824C176.465 20.9824 176.465 21.5274 176.851 21.5274Z" fill="#E8E8E8"/>
<path d="M192.616 20.965C192.515 20.3474 192.556 19.7298 192.738 19.1304C192.9 18.6036 193.428 17.3684 194.341 17.768C195.356 18.2221 195.214 20.2384 195.112 21.0376C195.072 21.3827 195.68 21.3827 195.721 21.0376C195.843 19.9841 195.863 16.9688 193.895 17.1504C192.069 17.3139 191.845 19.9296 192.048 21.1103C192.089 21.4554 192.677 21.3101 192.616 20.965Z" fill="#E8E8E8"/>
<path d="M178.149 22.9443C178.149 28.4118 178.149 33.8793 178.149 39.3286C178.149 39.6738 178.758 39.6738 178.758 39.3286C178.758 33.8611 178.758 28.3937 178.758 22.9443C178.758 22.5811 178.149 22.5811 178.149 22.9443Z" fill="#E8E8E8"/>
<path d="M178.454 39.9649C187.95 39.9649 197.446 39.9649 206.941 39.9649C207.327 39.9649 207.327 39.4199 206.941 39.4199C197.446 39.4199 187.95 39.4199 178.454 39.4199C178.068 39.4199 178.048 39.9649 178.454 39.9649Z" fill="#E8E8E8"/>
<path d="M207.652 39.4736C207.652 34.1151 207.652 28.7384 207.652 23.3799C207.652 23.0348 207.043 23.0348 207.043 23.3799C207.043 28.7384 207.043 34.1151 207.043 39.4736C207.043 39.8187 207.652 39.8187 207.652 39.4736Z" fill="#E8E8E8"/>
<path d="M178.697 23.1445C188.193 23.1445 197.689 23.1445 207.185 23.1445C207.571 23.1445 207.571 22.5996 207.185 22.5996C197.689 22.5996 188.193 22.5996 178.697 22.5996C178.312 22.5996 178.312 23.1445 178.697 23.1445Z" fill="#E8E8E8"/>
<path d="M181.862 116.311C191.663 116.311 201.463 116.311 211.263 116.311C211.649 116.311 211.649 115.766 211.263 115.766C201.463 115.766 191.663 115.766 181.862 115.766C181.457 115.766 181.457 116.311 181.862 116.311Z" fill="#E8E8E8"/>
<path d="M195.822 116.8C195.822 118.471 195.822 120.142 195.822 121.813C195.822 122.158 196.431 122.158 196.431 121.813C196.431 120.142 196.431 118.471 196.431 116.8C196.431 116.437 195.822 116.437 195.822 116.8Z" fill="#E8E8E8"/>
<path d="M191.379 122.83C196.228 122.83 201.078 122.83 205.947 122.83C206.333 122.83 206.333 122.285 205.947 122.285C201.098 122.285 196.249 122.285 191.379 122.285C190.993 122.285 190.973 122.83 191.379 122.83Z" fill="#E8E8E8"/>
<path d="M40.9663 104.013C40.9663 110.025 40.9663 116.056 40.9663 122.068C40.9663 122.413 41.575 122.413 41.575 122.068C41.575 116.056 41.575 110.025 41.575 104.013C41.575 103.668 40.9663 103.668 40.9663 104.013Z" fill="#E8E8E8"/>
<path d="M41.2707 104.285C51.1724 104.285 61.0538 104.285 70.9555 104.285C71.341 104.285 71.341 103.74 70.9555 103.74C61.0538 103.74 51.1724 103.74 41.2707 103.74C40.8649 103.74 40.8649 104.285 41.2707 104.285Z" fill="#E8E8E8"/>
<path d="M41.2908 122.468C51.2331 122.45 61.1754 122.45 71.1177 122.432C71.5032 122.432 71.5032 121.887 71.1177 121.887C61.1754 121.905 51.2331 121.905 41.2908 121.923C40.9053 121.923 40.9053 122.468 41.2908 122.468Z" fill="#E8E8E8"/>
<path d="M70.8337 104.085C70.8337 109.97 70.8337 115.856 70.8337 121.759C70.8337 122.104 71.4425 122.104 71.4425 121.759C71.4425 115.874 71.4425 109.988 71.4425 104.085C71.4425 103.74 70.8337 103.74 70.8337 104.085Z" fill="#E8E8E8"/>
<path d="M43.5228 106.538C43.0967 106.32 43.1982 105.703 43.7257 105.685C44.4359 105.667 44.0098 106.756 43.5431 106.484C43.2184 106.284 42.9141 106.756 43.2387 106.956C44.375 107.646 45.4098 105.594 44.0706 105.194C43.5431 105.031 42.9344 105.303 42.7112 105.757C42.488 106.23 42.7315 106.756 43.1982 107.011C43.5634 107.192 43.8677 106.72 43.5228 106.538Z" fill="#E8E8E8"/>
<path d="M44.8417 108.555C50.6853 108.555 56.529 108.555 62.3726 108.555C62.7581 108.555 62.7581 108.01 62.3726 108.01C56.529 108.01 50.6853 108.01 44.8417 108.01C44.4359 108.01 44.4359 108.555 44.8417 108.555Z" fill="#E8E8E8"/>
<path d="M45.1056 110.479C48.4738 110.479 51.842 110.479 55.2102 110.479C55.5957 110.479 55.5957 109.934 55.2102 109.934C51.842 109.934 48.4738 109.934 45.1056 109.934C44.6998 109.934 44.6998 110.479 45.1056 110.479Z" fill="#E8E8E8"/>
<path d="M45.6737 121.977C45.6737 120.052 45.6737 118.108 45.6737 116.183C45.6737 115.838 45.0649 115.838 45.0649 116.183C45.0649 118.108 45.0649 120.052 45.0649 121.977C45.0649 122.322 45.6737 122.322 45.6737 121.977Z" fill="#E8E8E8"/>
<path d="M45.4303 116.273C50.3202 116.273 55.2305 116.273 60.1205 116.273C60.506 116.273 60.506 115.729 60.1205 115.729C55.2305 115.729 50.3202 115.729 45.4303 115.729C45.0447 115.729 45.0447 116.273 45.4303 116.273Z" fill="#E8E8E8"/>
<path d="M59.8159 116.128C59.8159 118.035 59.8159 119.942 59.8159 121.868C59.8159 122.213 60.4246 122.213 60.4246 121.868C60.4246 119.961 60.4246 118.053 60.4246 116.128C60.4246 115.765 59.8159 115.765 59.8159 116.128Z" fill="#E8E8E8"/>
<path d="M48.4332 121.905C48.4332 120.633 48.4332 119.362 48.4332 118.108C48.4332 117.763 47.8245 117.763 47.8245 118.108C47.8245 119.38 47.8245 120.651 47.8245 121.905C47.8245 122.268 48.4332 122.268 48.4332 121.905Z" fill="#E8E8E8"/>
<path d="M50.868 121.905C50.868 120.633 50.868 119.362 50.868 118.108C50.868 117.763 50.2593 117.763 50.2593 118.108C50.2593 119.38 50.2593 120.651 50.2593 121.905C50.2593 122.268 50.868 122.268 50.868 121.905Z" fill="#E8E8E8"/>
<path d="M53.2215 121.851C53.2215 120.688 53.2215 119.525 53.2215 118.345C53.2215 118 52.6128 118 52.6128 118.345C52.6128 119.507 52.6128 120.67 52.6128 121.851C52.6128 122.196 53.2215 122.196 53.2215 121.851Z" fill="#E8E8E8"/>
<path d="M55.6566 122.032C55.6566 120.833 55.6566 119.616 55.6566 118.417C55.6566 118.072 55.0479 118.072 55.0479 118.417C55.0479 119.616 55.0479 120.833 55.0479 122.032C55.0479 122.377 55.6566 122.377 55.6566 122.032Z" fill="#E8E8E8"/>
<path d="M58.274 121.723C58.274 120.597 58.274 119.471 58.274 118.345C58.274 118 57.6653 118 57.6653 118.345C57.6653 119.471 57.6653 120.597 57.6653 121.723C57.6653 122.087 58.274 122.087 58.274 121.723Z" fill="#E8E8E8"/>
<path d="M69.1089 105.83C68.8654 105.739 68.8248 105.358 69.1089 105.267C69.2306 105.23 69.4335 105.249 69.4741 105.376C69.5147 105.448 69.4335 105.63 69.3118 105.612C69.1494 105.594 68.9871 105.648 68.9465 105.794C68.906 105.921 68.9871 106.102 69.1494 106.121C69.6364 106.193 70.0625 105.866 70.0828 105.43C70.1031 105.013 69.6567 104.686 69.2103 104.686C68.7639 104.686 68.3987 104.94 68.2972 105.339C68.2161 105.703 68.3784 106.121 68.7639 106.284C69.1494 106.447 69.4538 105.975 69.1089 105.83Z" fill="#E8E8E8"/>
<ellipse cx="171.839" cy="98.1807" rx="2.7392" ry="2.45219" fill="#EC615B"/>
<ellipse cx="177.257" cy="93.9674" rx="1.44062" ry="1.28967" fill="#EC615B"/>
<ellipse cx="147.856" cy="6.45162" rx="3.53052" ry="3.16061" fill="#5222D0"/>
<ellipse cx="40.8446" cy="86.6826" rx="1.92758" ry="1.72562" fill="#5222D0"/>
<ellipse cx="43.3604" cy="83.0696" rx="2.06962" ry="1.85277" fill="#EC615B"/>
<ellipse cx="144.467" cy="6.05201" rx="3.08414" ry="2.76099" fill="#EC615B"/>
<path d="M155.221 47.9017C155.262 47.5203 155.465 47.3568 155.81 47.375C155.992 47.3386 156.195 47.3205 156.378 47.3568C156.601 47.3568 156.824 47.3931 157.027 47.3568C157.352 47.3023 157.636 47.2115 157.859 46.9935C158.082 46.7574 158.123 46.4667 158.184 46.1761C158.366 45.2134 159.137 45.5404 159.847 45.7038C160.639 45.8855 161.288 45.722 161.816 45.1589C162.1 44.8501 162.282 44.4687 162.485 44.1054C162.729 43.6694 163.905 42.3253 164.311 43.4151C164.433 43.7421 165.021 43.5968 164.9 43.2698C164.575 42.4161 163.418 42.3253 162.708 42.8702C162.079 43.3606 161.917 44.1235 161.43 44.6866C160.598 45.6857 159.726 44.8501 158.67 44.8864C158.244 44.9046 157.92 45.1044 157.737 45.4495C157.453 45.9763 157.757 46.2124 157.108 46.5757C156.52 46.9209 156.357 46.721 155.728 46.7937C154.917 46.9027 154.065 47.8109 154.937 48.3558C155.221 48.5738 155.525 48.1015 155.221 47.9017Z" fill="#EC615B"/>
<path d="M157.92 49.4107C157.595 49.0292 157.717 48.8294 158.265 48.7749C158.589 48.5388 158.955 48.5025 159.34 48.6478C159.523 48.6659 159.726 48.7023 159.908 48.7204C160.375 48.7568 160.74 48.6841 161.146 48.5206C161.308 48.448 161.329 48.2663 161.247 48.1392C160.537 46.8495 162.749 46.6315 163.5 46.5952C164.129 46.577 164.758 46.5952 165.366 46.3954C166.137 46.1229 166.665 45.6325 166.746 44.8877C166.787 44.5426 166.178 44.5426 166.137 44.8877C165.955 46.6497 162.708 45.7596 161.531 46.4136C160.72 46.8495 160.314 47.6487 160.74 48.4298C160.781 48.3027 160.821 48.1755 160.842 48.0484C159.807 48.4843 158.265 47.5398 157.392 48.4661C156.966 48.9202 157.027 49.5742 157.595 49.9011C157.96 50.0646 158.265 49.5923 157.92 49.4107Z" fill="#EC615B"/>
<path d="M83.8396 14.6251C83.373 13.0266 85.544 11.7006 86.9035 13.0085C88.2629 14.3163 86.6194 16.1509 84.8744 15.6241C84.5092 15.5152 84.3469 16.0419 84.7121 16.1509C87.0658 16.8593 89.0948 14.2981 87.3296 12.627C85.5643 10.9377 82.6222 12.6452 83.2512 14.7704C83.3527 15.1155 83.9411 14.9702 83.8396 14.6251Z" fill="#5222D0"/>
<path d="M84.2861 146.371C85.9093 148.823 88.9732 150.277 92.1588 150.077C92.5443 150.059 92.5443 149.514 92.1588 149.532C89.1761 149.713 86.3354 148.387 84.8137 146.099C84.6108 145.79 84.0832 146.062 84.2861 146.371Z" fill="#5222D0"/>
<path d="M83.0485 149.495C85.179 151.457 87.9993 152.601 91.0632 152.728C91.4487 152.747 91.4487 152.202 91.0632 152.183C88.1617 152.056 85.5036 150.966 83.4746 149.096C83.2108 148.859 82.7644 149.259 83.0485 149.495Z" fill="#5222D0"/>
<path d="M219.785 25.2515C218.446 26.7592 219.826 29.175 221.997 28.957C223.052 28.8481 224.371 28.285 224.797 29.5746C225 30.1741 224.878 30.828 225.04 31.4274C225.264 32.2993 226.055 33.2257 227.151 32.8987C227.516 32.7897 227.353 32.263 226.988 32.372C225.507 32.8079 225.608 30.501 225.466 29.7563C225.345 29.1024 225.04 28.4848 224.31 28.2486C223.255 27.9035 222.159 28.6846 221.124 28.3395C219.968 27.958 219.44 26.5049 220.232 25.633C220.455 25.3787 220.029 24.979 219.785 25.2515Z" fill="#E8E8E8"/>
<path d="M216.965 28.9382C216.458 29.6829 216.843 30.464 217.553 30.9908C218.466 31.6447 219.501 31.5902 220.617 31.681C221.571 31.7537 222.321 31.9898 222.829 32.7527C223.174 33.2795 223.295 33.8971 223.661 34.4057C224.168 35.0959 225.061 35.6045 225.974 35.2594C226.339 35.1323 226.177 34.6055 225.811 34.7327C224.513 35.2231 223.965 33.7154 223.6 32.9525C223.295 32.2986 222.89 31.7537 222.139 31.4449C221.49 31.1724 220.739 31.1543 220.029 31.1179C219.116 31.0634 216.579 30.5912 217.492 29.2288C217.695 28.92 217.168 28.6476 216.965 28.9382Z" fill="#E8E8E8"/>
<path d="M10.6118 133.094C10.8756 132.477 11.2205 132.295 11.6263 132.567C11.7887 132.622 11.951 132.713 12.0727 132.822C12.3162 132.985 12.5191 133.167 12.7626 133.33C13.0467 133.512 13.3713 133.712 13.7162 133.784C14.2844 133.911 14.7916 133.748 15.1974 133.385C15.6641 132.967 15.7859 132.186 16.3134 131.823C16.8207 131.477 17.1453 132.022 17.5105 132.331C17.8758 132.622 18.2613 132.894 18.6468 133.149C18.9714 133.348 19.2758 132.876 18.9512 132.676C18.2207 132.204 17.5714 131.659 16.9627 131.06C16.9018 130.987 16.7598 130.969 16.6583 130.987C16.0091 131.169 15.6641 131.623 15.3395 132.15C15.0554 132.622 14.8931 133.021 14.2641 133.167C13.4525 133.348 12.9858 132.749 12.3771 132.349C11.7684 131.95 10.9973 131.659 10.3278 132.131C9.88137 132.458 9.75962 132.912 10.0234 133.367C10.2872 133.675 10.8147 133.403 10.6118 133.094Z" fill="#E8E8E8"/>
<path d="M10.7943 135.546C11.0175 136.509 12.032 137.272 13.1683 137.126C13.8176 137.054 14.2639 136.654 14.8118 136.363C15.806 135.818 16.9017 135.818 17.8756 136.381C18.2003 136.563 18.5046 136.091 18.18 135.909C17.2466 135.382 16.1307 135.219 15.0756 135.6C14.5886 135.782 14.2234 136.091 13.777 136.327C12.7827 136.836 11.6059 136.436 11.3624 135.382C11.3015 135.055 10.7131 135.201 10.7943 135.546Z" fill="#E8E8E8"/>
<path d="M50.4825 6.39628C52.1463 6.54159 53.5666 7.44981 54.3174 8.77582C54.5 9.08461 55.0275 8.81215 54.8449 8.50335C53.9927 6.9957 52.3695 6.01483 50.4825 5.85135C50.097 5.81502 50.097 6.35995 50.4825 6.39628Z" fill="#161616"/>
<path d="M50.6447 1.12862C53.4041 2.3093 55.5752 4.32555 56.7521 6.85041C56.8941 7.17737 57.4825 7.03205 57.3405 6.70509C56.1028 4.03492 53.8505 1.89152 50.949 0.656343C50.6041 0.511028 50.2997 0.983303 50.6447 1.12862Z" fill="#161616"/>
<path d="M57.1984 0.475188C58.4564 1.7467 59.0854 3.30884 59.0651 5.01629C59.0651 5.36141 59.6739 5.36141 59.6739 5.01629C59.6941 3.18168 58.984 1.47423 57.6245 0.093735C57.381 -0.178731 56.9549 0.202721 57.1984 0.475188Z" fill="#161616"/>
<path d="M149.824 153.42C149.56 151.803 151.589 150.296 153.111 151.604C154.511 152.802 152.786 154.746 151.224 153.838C150.899 153.638 150.595 154.11 150.92 154.31C152.969 155.509 155.343 153.057 153.72 151.386C151.833 149.424 148.891 151.349 149.236 153.583C149.296 153.91 149.885 153.765 149.824 153.42Z" fill="#EC615B"/>
<path d="M152.32 144.864C151.995 143.938 153.334 143.193 154.004 144.029C154.613 144.792 153.598 145.682 152.726 145.282C152.381 145.119 152.076 145.591 152.421 145.754C153.902 146.445 155.526 144.883 154.45 143.665C153.355 142.412 151.224 143.538 151.731 145.01C151.853 145.337 152.442 145.209 152.32 144.864Z" fill="#EC615B"/>
<path d="M119.774 152.021C119.125 152.057 118.658 152.348 117.745 152.929C116.69 153.601 115.412 154.582 114.194 155.999C114.661 157.834 115.371 159.941 116.487 162.139C119.551 168.206 124.096 172.129 127.16 174.309C127.586 173.855 128.174 173.128 128.438 172.147C128.803 170.785 128.398 169.659 128.174 169.077C127.424 166.916 126.916 164.682 126.267 162.484C124.908 157.925 125.598 157.416 124.238 155.309C123.812 154.673 121.986 151.876 119.774 152.021Z" fill="#161616"/>
<path d="M134.383 100.598C135.114 101.906 135.986 103.668 136.798 105.829C138.786 111.151 139.03 115.529 139.091 116.982C139.152 118.799 139.192 124.121 136.798 130.515C134.079 137.762 129.737 142.431 126.876 145.41C124.055 148.37 121.337 150.55 119.368 152.003C119.368 152.439 119.45 153.257 119.997 154.056C121.316 155.909 124.015 155.872 124.198 155.872C125.841 154.837 127.87 153.438 130.041 151.658C133.775 148.606 136.189 145.864 137.163 144.719C138.807 142.794 141.769 139.234 144.143 133.911C146.72 128.153 147.43 122.94 147.572 119.344C147.734 115.438 147.247 112.677 146.558 108.772C145.442 102.36 144.021 99.7624 143.007 98.2003C142.073 96.7834 141.14 95.7117 140.47 95.0215C138.441 96.8743 136.412 98.727 134.383 100.598Z" fill="white"/>
<path d="M134.201 101.342C138.279 108.299 139.76 116.437 138.32 124.193C137.001 131.277 133.288 137.852 128.337 143.447C125.598 146.535 122.493 149.332 119.125 151.857C118.821 152.075 119.267 152.475 119.551 152.239C125.76 147.552 131.177 141.921 134.83 135.418C138.644 128.607 140.227 120.996 139.111 113.421C138.482 109.116 137.001 104.92 134.749 101.069C134.546 100.761 134.018 101.033 134.201 101.342Z" fill="#161616"/>
<path d="M141.526 96.3302C146.111 103.996 147.958 112.878 147.044 121.524C146.111 130.425 142.134 138.69 135.844 145.592C132.354 149.425 128.316 152.803 123.974 155.855C123.67 156.073 124.096 156.454 124.4 156.236C132.273 150.696 139.314 143.903 143.494 135.674C147.531 127.736 148.729 118.727 147.268 110.135C146.415 105.213 144.671 100.435 142.053 96.0577C141.87 95.7489 141.343 96.0214 141.526 96.3302Z" fill="#161616"/>
<path d="M118.963 152.003C119.308 154.455 121.56 157.107 124.624 156.054C124.989 155.926 124.827 155.4 124.461 155.527C121.783 156.453 119.876 154.128 119.571 152.003C119.531 151.658 118.922 151.658 118.963 152.003Z" fill="#161616"/>
<path d="M118.78 151.948C116.832 152.856 115.229 154.146 113.971 155.744C113.748 156.035 114.276 156.307 114.499 156.017C115.696 154.491 117.258 153.274 119.084 152.42C119.429 152.257 119.125 151.784 118.78 151.948Z" fill="#161616"/>
<path d="M114.032 156.235C115.899 163.356 120.383 169.84 126.835 174.363C127.14 174.581 127.566 174.2 127.261 173.982C120.89 169.513 116.467 163.138 114.62 156.09C114.519 155.745 113.931 155.89 114.032 156.235Z" fill="#161616"/>
<path d="M124.096 156.126C124.989 159.141 125.902 162.138 126.795 165.154C127.626 167.896 129.351 171.62 126.957 174.109C126.693 174.381 127.139 174.763 127.383 174.49C129.615 172.165 128.6 169.041 127.809 166.389C126.774 162.919 125.719 159.45 124.684 155.981C124.583 155.635 123.994 155.781 124.096 156.126Z" fill="#161616"/>
<path d="M136.717 105.138C138.299 102.759 141.221 101.342 144.305 101.451C144.691 101.469 144.691 100.924 144.305 100.906C140.998 100.797 137.873 102.323 136.189 104.866C135.986 105.156 136.514 105.429 136.717 105.138Z" fill="#161616"/>
<path d="M138.989 112.985C140.288 111.568 142.033 110.696 144.041 110.406C144.427 110.351 144.265 109.824 143.879 109.879C141.769 110.17 139.902 111.132 138.563 112.604C138.319 112.876 138.746 113.258 138.989 112.985Z" fill="#161616"/>
<path d="M139.963 107.501C141.586 106.284 143.595 105.685 145.685 105.757C146.071 105.775 146.071 105.231 145.685 105.212C143.413 105.14 141.262 105.812 139.517 107.12C139.233 107.338 139.659 107.719 139.963 107.501Z" fill="#161616"/>
<path d="M139.212 123.304C140.065 122.341 141.586 122.36 142.844 122.396C144.366 122.45 146.253 122.923 146.476 124.521C146.517 124.866 147.126 124.866 147.085 124.521C146.862 122.959 145.36 122.123 143.737 121.924C142.155 121.724 139.882 121.688 138.786 122.941C138.543 123.195 138.969 123.595 139.212 123.304Z" fill="#161616"/>
<path d="M122.919 149.114C123.061 151.221 124.218 153.964 126.916 154.237C127.302 154.273 127.302 153.728 126.916 153.692C124.603 153.456 123.65 150.894 123.528 149.114C123.508 148.769 122.899 148.769 122.919 149.114Z" fill="#161616"/>
<path d="M126.977 145.391C127.343 146.99 128.337 148.334 129.818 149.297C130.143 149.497 130.447 149.024 130.122 148.825C128.783 147.953 127.911 146.699 127.566 145.246C127.485 144.901 126.896 145.046 126.977 145.391Z" fill="#161616"/>
<path d="M130.427 145.209C131.38 146.299 132.456 147.407 134.038 147.68C134.424 147.752 134.586 147.226 134.201 147.153C132.72 146.899 131.746 145.827 130.853 144.81C130.609 144.537 130.183 144.937 130.427 145.209Z" fill="#161616"/>
<path d="M135.033 134.766C137.65 134.675 140.125 135.493 142.073 137.073C142.357 137.309 142.804 136.928 142.499 136.692C140.45 135.02 137.812 134.13 135.033 134.239C134.647 134.239 134.647 134.784 135.033 134.766Z" fill="#161616"/>
<path d="M138.928 129.77C140.45 129.643 141.891 130.006 143.108 130.86C143.412 131.078 143.839 130.696 143.534 130.478C142.215 129.534 140.612 129.098 138.928 129.225C138.543 129.243 138.543 129.788 138.928 129.77Z" fill="#161616"/>
<path opacity="0.13" d="M140.125 97.7637C140.978 100.107 142.012 103.413 142.763 107.463C143.514 111.55 144.508 116.836 143.494 123.194C142.499 129.479 140.024 133.911 138.218 137.09C133.47 145.445 127.038 151.421 121.519 155.454C120.687 154.273 119.855 153.092 119.023 151.912C120.626 151.004 122.879 149.569 125.171 147.461C127.363 145.445 128.661 143.683 130.589 141.031C133.024 137.689 134.302 135.927 135.56 133.42C138.705 127.172 139.03 121.614 139.07 120.179C139.253 115.601 138.32 112.077 137.305 108.245C136.575 105.484 135.763 103.213 135.114 101.56C136.818 100.307 138.482 99.0352 140.125 97.7637Z" fill="#666666"/>
<path opacity="0.13" d="M138.523 101.451C138.949 102.45 139.517 103.885 139.983 105.647C140.754 108.517 141.079 111.387 141.018 114.82C140.897 121.305 140.775 127.281 138.096 133.566C133.531 144.228 123.954 150.223 119.348 152.711C121.499 150.659 124.461 147.698 127.687 143.92C131.624 139.36 133.572 137.072 135.154 134.22C140.592 124.411 139.152 114.729 138.665 112.059C137.954 108.136 136.656 105.011 135.58 102.886C136.575 102.414 137.549 101.923 138.523 101.451Z" fill="#666666"/>
<path d="M106.687 105.03C105.835 105.902 105.875 106.901 105.551 110.715C105.084 116.237 104.901 115.093 104.658 118.798C103.887 130.714 105.043 141.213 105.043 141.213C105.388 144.447 106.626 154.401 109.994 164.773C111.739 170.131 114.702 177.524 114.823 177.851C115.696 180.031 116.447 181.847 116.974 183.082C117.096 183.155 120.2 184.717 122.432 183.427C122.777 183.228 123.731 182.664 123.954 181.611C124.137 180.739 123.731 180.031 123.568 179.795C122.899 177.978 121.925 175.272 120.89 171.947C119.165 166.389 116.649 158.052 115.676 147.262C115.31 143.139 115.31 140.196 115.29 135.201C115.29 130.424 115.29 125.083 116.061 118.254C116.426 114.984 117.055 110.552 118.212 105.284C115.351 104.321 109.061 102.632 106.687 105.03Z" fill="white"/>
<path d="M116.913 183.445C117.217 184.154 117.562 185.134 117.664 186.333C117.765 187.26 117.704 188.077 117.603 188.713C119.307 189.567 120.748 190.039 121.783 190.293C122.432 190.457 123.122 190.602 124.319 190.856C125.699 191.147 126.754 191.347 127.16 191.419C131.421 192.219 133.571 192.618 136.087 192.782C137.102 192.854 138.624 192.909 140.511 192.836C140.876 192.309 141.606 191.092 141.14 189.948C140.775 189.04 139.861 188.604 138.218 187.859C134.789 186.279 133.064 185.498 133.024 185.48C130.913 184.735 127.931 183.373 124.218 180.666C123.913 181.156 123.081 182.264 121.499 182.991C119.449 183.936 117.461 183.554 116.913 183.445Z" fill="#161616"/>
<path d="M105.348 109.389C102.487 128.934 104.293 148.969 110.562 167.842C112.328 173.128 114.438 178.323 116.873 183.391C117.035 183.718 117.542 183.427 117.4 183.118C108.716 165.081 104.374 145.445 104.638 125.809C104.719 120.324 105.165 114.82 105.956 109.389C105.997 109.044 105.388 109.062 105.348 109.389Z" fill="#161616"/>
<path d="M116.426 111.278C114.275 129.316 114.296 147.771 118.678 165.554C119.916 170.549 121.499 175.453 123.426 180.249C123.568 180.576 124.157 180.43 124.015 180.103C117.096 163.029 115.026 144.701 115.777 126.627C115.98 121.505 116.426 116.383 117.035 111.278C117.075 110.915 116.467 110.915 116.426 111.278Z" fill="#161616"/>
<path d="M117.157 183.501C119.896 184.245 122.96 183.01 124.136 180.649C124.299 180.34 123.771 180.049 123.609 180.376C122.554 182.502 119.815 183.646 117.319 182.974C116.954 182.865 116.791 183.392 117.157 183.501Z" fill="#161616"/>
<path d="M116.751 183.446C117.218 184.936 117.441 186.461 117.4 188.005C117.4 188.351 118.009 188.351 118.009 188.005C118.05 186.407 117.826 184.845 117.339 183.301C117.238 182.956 116.65 183.101 116.751 183.446Z" fill="#161616"/>
<path d="M117.421 188.55C120.261 190.548 124.177 190.893 127.606 191.547C131.725 192.328 135.946 193.4 140.186 193.164C140.572 193.146 140.572 192.601 140.186 192.619C136.128 192.837 132.111 191.838 128.154 191.093C124.745 190.457 120.667 190.167 117.847 188.169C117.542 187.951 117.116 188.332 117.421 188.55Z" fill="#161616"/>
<path d="M124.096 180.776C126.774 182.956 129.94 184.5 133.166 185.935C134.809 186.661 136.453 187.352 138.076 188.096C138.888 188.46 139.76 188.841 140.349 189.477C141.262 190.476 140.755 191.729 140.247 192.801C140.105 193.128 140.612 193.4 140.775 193.073C141.404 191.729 141.952 190.222 140.714 189.023C139.456 187.769 137.285 187.134 135.621 186.407C131.725 184.718 127.769 183.01 124.522 180.395C124.238 180.158 123.812 180.54 124.096 180.776Z" fill="#161616"/>
<path d="M104.617 119.143C108.026 120.723 111.962 121.068 115.655 120.106C116.02 120.015 115.878 119.488 115.493 119.579C111.962 120.505 108.188 120.196 104.922 118.671C104.577 118.507 104.272 118.979 104.617 119.143Z" fill="#161616"/>
<path d="M104.374 124.72C106.504 125.574 108.757 125.901 111.09 125.647C111.476 125.61 111.476 125.066 111.09 125.102C108.899 125.356 106.707 125.066 104.678 124.248C104.333 124.103 104.029 124.575 104.374 124.72Z" fill="#161616"/>
<path d="M104.495 137.2C106.038 138.144 107.884 138.38 109.73 138.199C111.597 138.017 113.89 137.636 115.493 136.746C115.818 136.564 115.513 136.092 115.189 136.273C113.687 137.109 111.475 137.472 109.73 137.654C108.006 137.835 106.261 137.617 104.8 136.727C104.475 136.528 104.171 137 104.495 137.2Z" fill="#161616"/>
<path d="M105.612 145.119C108.939 146.317 112.713 146.045 115.797 144.392C116.142 144.21 115.838 143.738 115.493 143.92C112.531 145.5 108.96 145.736 105.774 144.592C105.409 144.465 105.267 144.991 105.612 145.119Z" fill="#161616"/>
<path d="M108.716 160.104C111.861 161.103 114.925 159.832 117.583 158.378C117.907 158.197 117.603 157.724 117.278 157.906C114.742 159.287 111.861 160.522 108.878 159.577C108.513 159.468 108.351 159.995 108.716 160.104Z" fill="#161616"/>
<path d="M119.084 167.423C118.07 168.423 116.812 169.095 115.371 169.422C114.986 169.512 115.148 170.039 115.534 169.948C117.096 169.603 118.455 168.877 119.531 167.823C119.774 167.551 119.348 167.169 119.084 167.423Z" fill="#161616"/>
<path d="M114.052 176.398C115.371 176.216 116.609 175.835 117.765 175.253C118.11 175.072 117.806 174.618 117.461 174.781C116.345 175.344 115.168 175.707 113.91 175.871C113.504 175.925 113.667 176.452 114.052 176.398Z" fill="#161616"/>
<path opacity="0.11" d="M113.18 107.609C112.388 110.08 111.414 113.676 110.846 118.09C110.035 124.375 110.461 129.08 110.988 134.475C112.855 153.057 113.829 162.484 116.122 168.569C118.313 174.382 120.87 178.887 122.716 181.811C122.635 181.902 120.89 183.773 118.618 183.391C117.806 183.246 117.218 182.883 116.852 182.61C115.249 179.359 113.139 174.709 111.13 168.969C109.467 164.21 104.435 148.915 104.252 128.062C104.211 122.922 104.435 116.074 105.571 108.009C108.107 107.864 110.643 107.737 113.18 107.609Z" fill="#666666"/>
<path opacity="0.11" d="M105.571 112.332C105.855 122.177 106.667 130.46 107.478 136.727C108.858 147.589 109.872 155.073 113.2 164.518C115.878 172.147 119.084 178.196 121.539 182.356C120.079 182.574 118.618 182.792 117.136 183.01C115.736 180.34 114.418 177.542 113.18 174.618C103.501 151.676 103.197 129.625 105.571 112.332Z" fill="#666666"/>
<path d="M146.354 54.552C145.949 54.7881 145.441 55.4057 145.705 57.5673C146.091 60.6189 147.531 62.8895 147.633 63.0348C153.01 71.4631 151.752 70.5004 153.416 72.3895C155.404 74.6237 158.204 77.7843 163.155 79.7279C165.285 80.5634 168.167 81.7078 171.352 80.9449C174.071 80.3091 176.181 78.9286 176.181 78.9286C176.973 78.4019 177.805 77.7298 179.326 77.0577C180.199 76.6581 180.97 76.4219 181.497 76.2585C181.863 76.4401 182.41 76.6581 183.1 76.6944C184.155 76.7489 184.48 76.3493 185.596 76.2585C185.758 76.2403 187.077 76.1676 188.335 76.7671C189.634 77.3847 189.877 78.2566 190.425 78.1294C191.014 78.0023 191.216 76.8942 191.237 76.3311C191.257 75.4956 190.892 74.878 190.669 74.5328C190.141 73.661 189.37 73.1524 188.903 72.8799C188.822 72.5893 188.599 71.9898 188.011 71.4449C187.3 70.7728 186.489 70.573 186.164 70.5004C186.103 70.2097 185.961 69.7919 185.596 69.4287C184.622 68.4478 182.918 68.7202 182.451 68.7747C180.828 69.029 179.854 70.0281 179.549 70.355C179.347 70.246 178.799 69.9917 178.109 70.0644C177.216 70.1734 176.709 70.7728 176.506 71.009C175.694 71.9535 175.897 73.0797 175.938 73.3158C174.599 73.443 173.604 73.7699 172.955 74.0424C171.717 74.5692 171.312 75.0778 170.135 75.4774C169.546 75.6772 168.532 76.0042 167.314 75.8407C166.259 75.6954 165.509 75.2594 165.062 74.9688C161.511 72.6982 159.361 69.7919 159.361 69.7919C153.253 61.5635 153.862 62.7078 153.253 61.6543C151.265 58.2575 149.885 54.7881 147.633 54.3885C147.45 54.3704 146.841 54.2614 146.354 54.552Z" fill="white"/>
<path d="M148.728 54.4435C151.386 59.693 154.734 64.6701 158.691 69.2293C162.059 73.1165 166.543 78.0391 172.752 76.9855C173.138 76.9129 172.975 76.3861 172.59 76.4588C166.239 77.5305 161.592 71.8268 158.305 67.867C154.755 63.6165 151.731 59.0209 149.276 54.171C149.094 53.8441 148.566 54.1165 148.728 54.4435Z" fill="#161616"/>
<path d="M166.28 75.8239C167.152 76.0055 168.045 76.1872 168.938 76.06C169.81 75.9329 170.561 75.5151 171.312 75.1336C173.341 74.1164 175.552 73.5715 177.886 73.5352C178.271 73.5352 178.271 72.9902 177.886 72.9902C176.059 73.0266 174.254 73.3354 172.549 73.9711C171.717 74.2799 170.967 74.7159 170.175 75.0791C168.917 75.6604 167.781 75.5877 166.442 75.2971C166.056 75.2245 165.894 75.7331 166.28 75.8239Z" fill="#161616"/>
<path d="M146.415 61.2738C149.134 66.4507 151.934 71.7547 156.52 75.8417C160.538 79.4019 166.503 82.399 172.286 80.8914C173.848 80.4918 175.309 79.8015 176.668 79.0205C178.19 78.1304 179.671 76.7681 181.599 76.7499C181.984 76.7499 181.984 76.205 181.599 76.205C178.982 76.2413 176.932 78.3847 174.721 79.4201C171.636 80.8551 168.39 81.1094 165.083 80.1285C159.34 78.421 155.039 74.2069 151.934 69.7203C150.027 66.9411 148.465 63.9803 146.923 61.0195C146.781 60.6744 146.253 60.965 146.415 61.2738Z" fill="#161616"/>
<path d="M177.784 73.3715C179.61 73.4442 182.268 74.2798 181.741 76.3868C181.66 76.732 182.248 76.8773 182.329 76.5322C182.958 74.0436 180.036 72.9174 177.784 72.8266C177.399 72.8085 177.399 73.3534 177.784 73.3715Z" fill="#161616"/>
<path d="M176.344 73.0989C176.486 72.4449 176.547 71.7547 176.79 71.1371C177.135 70.2471 178.555 70.465 179.387 70.5922C179.773 70.6467 179.935 70.1199 179.55 70.0654C178.697 69.9383 177.358 69.7203 176.648 70.3197C175.938 70.9191 175.938 72.1725 175.755 72.9717C175.674 73.2987 176.262 73.444 176.344 73.0989Z" fill="#161616"/>
<path d="M178.352 71.6086C179.448 71.0091 180.463 70.3371 181.477 69.6468C182.228 69.1382 182.999 68.7749 183.973 68.9747C184.886 69.1745 185.555 69.7376 186.042 70.4097C186.266 70.7003 186.793 70.4279 186.57 70.1372C185.738 69.0292 184.419 68.1573 182.836 68.4116C182.025 68.5388 181.416 68.9929 180.787 69.4288C179.894 70.0464 178.981 70.6095 178.028 71.1363C177.723 71.3179 178.028 71.7902 178.352 71.6086Z" fill="#161616"/>
<path d="M182.735 71.9551C183.628 71.7916 184.358 71.4828 185.17 71.174C185.616 71.0105 186.124 70.8652 186.57 71.0105C186.854 71.1014 187.077 71.283 187.321 71.4465C187.767 71.7553 188.193 72.1004 188.579 72.4637C188.863 72.718 189.289 72.3184 189.005 72.0822C188.295 71.4465 187.219 70.393 186.124 70.3566C185.657 70.3385 185.251 70.5383 184.845 70.7199C184.095 71.065 183.384 71.3012 182.553 71.4465C182.187 71.501 182.35 72.0277 182.735 71.9551Z" fill="#161616"/>
<path d="M184.155 73.6077C185.129 73.5351 186.083 73.3898 187.057 73.1899C187.787 73.0446 188.518 72.8812 189.188 73.2808C189.756 73.6077 190.101 74.1527 190.446 74.6613C190.648 74.9519 191.176 74.6794 190.973 74.3888C190.405 73.5714 189.715 72.6632 188.559 72.4815C187.99 72.3907 187.422 72.5542 186.874 72.6632C185.961 72.8448 185.069 72.9901 184.135 73.0628C183.77 73.081 183.77 73.6259 184.155 73.6077Z" fill="#161616"/>
<path d="M182.248 76.9131C183.486 77.3309 184.561 76.8405 185.758 76.5862C187.605 76.2047 188.903 77.2401 190.121 78.3118C190.405 78.5661 190.831 78.1665 190.547 77.9303C189.573 77.0766 188.518 76.1865 187.118 75.9867C185.495 75.7506 183.993 76.9313 182.39 76.3863C182.045 76.2592 181.883 76.786 182.248 76.9131Z" fill="#161616"/>
<path d="M186.814 74.7875C187.828 74.7693 188.944 74.8783 189.857 75.3143C191.054 75.8955 191.257 77.2034 190.202 77.9844C189.898 78.2024 190.324 78.5839 190.628 78.3659C191.582 77.6575 191.846 76.4041 191.075 75.4959C190.161 74.406 188.234 74.1881 186.814 74.2244C186.428 74.2426 186.428 74.7875 186.814 74.7875Z" fill="#161616"/>
<path d="M190.344 74.5706C190.526 74.9158 190.628 75.279 190.648 75.6423C190.669 75.9875 191.277 75.9875 191.257 75.6423C191.216 75.1701 191.095 74.7159 190.871 74.28C190.709 73.9894 190.182 74.2618 190.344 74.5706Z" fill="#161616"/>
<path d="M149.175 65.4514C149.662 63.7258 151.325 62.4361 153.314 62.2908C153.699 62.2545 153.699 61.7095 153.314 61.7459C151.041 61.9094 149.134 63.3262 148.586 65.3061C148.505 65.6512 149.094 65.7965 149.175 65.4514Z" fill="#161616"/>
<path d="M151.528 68.956C151.528 67.9388 151.954 67.0306 152.746 66.3403C153.03 66.086 152.604 65.7046 152.32 65.9589C151.407 66.7581 150.92 67.8298 150.92 68.9742C150.92 69.3011 151.528 69.3011 151.528 68.956Z" fill="#161616"/>
<path d="M153.253 71.2822C153.456 69.3386 154.917 67.6675 156.987 67.0318C157.352 66.9228 157.19 66.396 156.824 66.505C154.491 67.2316 152.868 69.0843 152.645 71.2822C152.604 71.6274 153.213 71.6274 153.253 71.2822Z" fill="#161616"/>
<path d="M156.297 74.9505C156.459 72.9887 158.082 71.3721 160.233 70.9907C160.619 70.918 160.456 70.3912 160.071 70.4639C157.656 70.8817 155.85 72.7526 155.688 74.9323C155.668 75.2956 156.276 75.2956 156.297 74.9505Z" fill="#161616"/>
<path d="M160.74 78.4924C160.943 76.8394 162.039 75.4226 163.642 74.6234C163.987 74.4599 163.682 73.9876 163.337 74.1511C161.511 75.0593 160.355 76.6396 160.132 78.4924C160.091 78.8375 160.7 78.8375 160.74 78.4924Z" fill="#161616"/>
<path d="M165.813 75.696C166.949 77.131 167.091 78.9474 166.117 80.4914C165.935 80.8002 166.442 81.0727 166.645 80.7639C167.7 79.0564 167.599 77.0038 166.341 75.4054C166.117 75.1329 165.59 75.4054 165.813 75.696Z" fill="#161616"/>
<path d="M172.833 74.0791C172.894 74.3516 173.036 74.4242 173.32 74.5151C173.888 74.7149 174.416 74.7512 174.944 75.06C176.06 75.7321 176.709 76.8583 176.689 78.0389C176.689 78.3841 177.297 78.3841 177.297 78.0389C177.318 77.0581 176.952 76.1317 176.242 75.3688C175.897 75.0055 175.491 74.6967 175.045 74.4606C174.842 74.3516 173.442 74.0064 173.422 73.9156C173.341 73.5887 172.752 73.734 172.833 74.0791Z" fill="#161616"/>
<path opacity="0.11" d="M147.754 57.1319C148.809 57.0592 149.459 60.8919 151.407 64.9971C153.05 68.4301 156.621 75.9139 163.865 77.9846C167.537 79.0382 172.854 78.8747 177.054 76.9311C178.92 76.0592 179.894 75.151 182.329 74.6969C185.068 74.1883 189.208 74.3517 190.384 76.4043C190.729 77.0037 190.75 77.6213 190.668 78.1118C189.532 76.8584 188.497 76.4951 187.747 76.4043C186.671 76.2772 186.083 76.6949 184.521 76.8039C183.303 76.8766 182.268 76.7131 181.599 76.5496C180.503 76.8948 178.86 77.5123 177.054 78.5114C175.329 79.4741 174.923 79.9827 173.685 80.4731C171.555 81.3087 169.546 81.0726 167.822 80.8728C163.642 80.3642 160.72 78.6022 159.32 77.7303C158.102 76.9674 156.236 75.6596 153.76 72.8804C151.61 70.4646 148.607 66.5229 146.293 60.8193C146.557 59.0755 147.004 57.1864 147.754 57.1319Z" fill="#666666"/>
<path d="M100.214 61.5999C100.458 62.7079 100.762 64.2338 101.066 66.0502C101.249 67.2127 101.959 71.772 102.02 78.2567C102.081 85.1591 101.411 91.0807 100.64 95.5855C100.011 99.3455 99.2403 102.47 98.6316 104.777C100.235 106.139 102.832 108.028 106.464 109.518C109.933 110.934 113.078 111.479 115.249 111.697C123.021 100.781 128.905 92.7155 132.496 87.8475C140.612 76.7854 146.273 69.3198 148.566 57.8399C148.992 55.751 149.195 54.0072 149.297 52.8265C146.578 52.2089 142.601 51.5368 137.772 51.6821C136.94 51.7003 134.89 51.7911 130.792 52.4451C126.47 53.1171 120.91 54.2615 114.499 56.2232C110.583 57.4039 105.693 59.1296 100.214 61.5999Z" fill="#161616"/>
<path d="M116.284 63.252C116.487 64.8141 116.71 66.903 116.873 69.3915C117.075 72.4431 117.075 74.859 117.075 76.6028C117.035 83.9049 116.568 91.0798 116.487 92.4422C116.142 97.619 115.675 104.176 115.006 111.824C118.881 110.425 121.986 109.081 124.137 108.082C131.928 104.503 137.508 100.87 141.424 98.2911C144.488 96.2748 146.943 94.5129 148.586 93.314C149.033 89.4632 149.337 86.1391 149.581 83.5234C149.885 80.1812 150.169 77.0024 150.372 72.7701C150.494 70.2634 150.555 68.9919 150.575 67.2481C150.615 61.381 150.068 57.4393 149.885 56.2223C149.682 54.8055 149.459 53.643 149.297 52.8438C143.859 53.7701 137.548 55.2051 130.711 57.4757C125.232 59.274 120.423 61.272 116.284 63.252Z" fill="white"/>
<path d="M100.356 61.69C112.044 56.4042 124.522 53.3162 137.488 51.8631C137.873 51.8267 137.873 51.2818 137.488 51.3181C130.914 52.0629 124.401 53.1164 118.029 54.8057C111.841 56.4587 105.815 58.6021 100.052 61.2177C99.6869 61.3812 99.9912 61.8535 100.356 61.69Z" fill="#161616"/>
<path d="M100.234 61.9255C102.974 61.7983 105.693 62.1798 108.411 62.5067C111.009 62.8337 113.606 63.1425 116.223 63.4694C116.609 63.5239 116.771 62.9972 116.386 62.9427C113.646 62.5975 110.927 62.2706 108.188 61.9255C105.551 61.5985 102.913 61.2534 100.234 61.3805C99.8489 61.3987 99.8489 61.9436 100.234 61.9255Z" fill="#161616"/>
<path d="M137.163 51.9723C141.282 51.7361 145.381 52.1176 149.378 53.0621C149.763 53.153 149.926 52.6262 149.54 52.5354C145.503 51.5727 141.343 51.1912 137.163 51.4273C136.778 51.4637 136.778 52.0086 137.163 51.9723Z" fill="#161616"/>
<path d="M116.771 63.2705C127.099 58.6931 138.056 55.3145 149.337 53.2075C149.723 53.1348 149.56 52.608 149.175 52.6807C137.833 54.8059 126.835 58.2027 116.447 62.7983C116.122 62.9617 116.426 63.434 116.771 63.2705Z" fill="#161616"/>
<path d="M115.736 63.2159C117.502 75.6403 116.629 88.1919 115.736 100.635C115.473 104.304 115.209 107.973 114.62 111.606C114.56 111.951 115.148 112.096 115.209 111.751C116.223 105.539 116.487 99.2177 116.873 92.951C117.258 86.648 117.522 80.3449 117.299 74.0419C117.157 70.4271 116.873 66.7943 116.345 63.2159C116.284 62.8708 115.675 62.8708 115.736 63.2159Z" fill="#161616"/>
<path d="M100.153 61.5087C102.669 75.6951 102.162 90.2448 98.6317 104.268C98.5505 104.613 99.1389 104.758 99.2201 104.413C102.771 90.2993 103.278 75.6587 100.742 61.3634C100.681 61.0182 100.093 61.1635 100.153 61.5087Z" fill="#161616"/>
<path d="M98.5505 104.685C102.933 108.609 108.635 111.188 114.762 111.987C115.148 112.042 115.31 111.515 114.925 111.461C108.899 110.661 103.298 108.155 98.9766 104.286C98.6925 104.068 98.2664 104.449 98.5505 104.685Z" fill="#161616"/>
<path d="M148.911 53.1708C151.529 66.449 149.824 79.9633 148.12 93.2596C148.079 93.6047 148.688 93.6047 148.729 93.2596C150.433 79.927 152.137 66.3763 149.5 53.0255C149.439 52.6803 148.85 52.8257 148.911 53.1708Z" fill="#161616"/>
<path d="M148.14 93.2231C138.035 100.816 126.734 107.064 114.641 111.769C114.275 111.914 114.6 112.387 114.945 112.241C127.079 107.519 138.421 101.234 148.566 93.6227C148.871 93.3866 148.444 93.0051 148.14 93.2231Z" fill="#161616"/>
<path d="M118.415 65.16C118.07 64.9057 117.908 64.4335 118.171 64.0883C118.415 63.7432 119.024 63.6161 119.409 63.8522C119.774 64.0702 119.896 64.5788 119.673 64.9239C119.368 65.3599 118.679 65.3962 118.273 65.0692C118.05 64.8876 117.725 65.1782 117.948 65.3599C118.516 65.814 119.409 65.8321 119.916 65.3054C120.403 64.8149 120.322 63.9975 119.754 63.5797C119.206 63.1801 118.354 63.2709 117.887 63.7251C117.4 64.2337 117.522 65.0329 118.09 65.4507C118.334 65.6142 118.658 65.3235 118.415 65.16Z" fill="#161616"/>
<path d="M118.922 68.1028C119.023 70.1736 119.125 72.2443 119.226 74.3151C119.247 74.5694 119.693 74.5875 119.693 74.3151C119.592 72.2443 119.49 70.1736 119.389 68.1028C119.368 67.8485 118.902 67.8485 118.922 68.1028Z" fill="#161616"/>
<path d="M119.165 68.1933C125.679 65.6685 132.415 63.5977 139.273 61.9811C139.557 61.9084 139.435 61.527 139.151 61.5815C132.253 63.2163 125.496 65.3052 118.942 67.83C118.658 67.9572 118.902 68.3023 119.165 68.1933Z" fill="#161616"/>
<path d="M119.612 74.3698C124.908 71.845 130.467 69.8106 136.209 68.3029C136.494 68.2303 136.372 67.8307 136.088 67.9033C130.305 69.4291 124.705 71.4817 119.389 74.0247C119.125 74.1337 119.348 74.4788 119.612 74.3698Z" fill="#161616"/>
<path d="M138.989 61.8349C138.036 63.9056 137.062 65.9763 136.108 68.0471C135.986 68.2832 136.433 68.3922 136.554 68.1561C137.508 66.0853 138.482 64.0146 139.436 61.9438C139.537 61.7077 139.091 61.5987 138.989 61.8349Z" fill="#161616"/>
<path d="M140.065 61.745C139.172 63.7431 138.259 65.7412 137.305 67.7211C137.183 67.9572 137.589 68.1752 137.691 67.9209C138.644 65.9047 139.598 63.8884 140.491 61.854C140.633 61.6179 140.186 61.5089 140.065 61.745Z" fill="#161616"/>
<path d="M137.67 68.083C139.557 67.3564 141.424 66.6298 143.311 65.9032C143.575 65.7943 143.352 65.4491 143.088 65.5581C141.201 66.2847 139.334 67.0113 137.447 67.7378C137.183 67.8287 137.407 68.192 137.67 68.083Z" fill="#161616"/>
<path d="M140.572 61.8889C141.708 61.4711 142.885 61.1442 144.102 60.9262C144.386 60.8717 144.265 60.4721 143.981 60.5266C142.763 60.7445 141.586 61.0533 140.45 61.4893C140.186 61.5801 140.288 61.9797 140.572 61.8889Z" fill="#161616"/>
<path d="M143.92 60.8908C143.514 62.3985 143.189 63.9243 142.925 65.4683C142.885 65.7226 143.331 65.8316 143.372 65.5773C143.636 64.0333 143.96 62.5075 144.366 60.9998C144.427 60.7455 143.981 60.6365 143.92 60.8908Z" fill="#161616"/>
<path d="M145.563 92.5511C140.633 95.0578 135.702 97.5645 130.751 100.071C130.488 100.198 130.731 100.562 130.975 100.416C135.905 97.9096 140.836 95.4029 145.787 92.8962C146.05 92.7691 145.807 92.424 145.563 92.5511Z" fill="#161616"/>
<path d="M131.259 91.1536C131.401 92.6068 131.157 94.1144 131.035 95.5857C130.914 97.1479 130.792 98.71 130.65 100.272C130.63 100.526 131.076 100.526 131.117 100.272C131.238 98.71 131.36 97.1479 131.502 95.5857C131.624 94.1326 131.867 92.6249 131.725 91.1536C131.685 90.8993 131.218 90.8993 131.259 91.1536Z" fill="#161616"/>
<path d="M131.543 91.153C136.351 88.7371 141.404 86.7209 146.639 85.1588C146.923 85.0679 146.801 84.6865 146.517 84.7591C141.241 86.3394 136.148 88.3557 131.299 90.7897C131.056 90.9169 131.299 91.2802 131.543 91.153Z" fill="#161616"/>
<path d="M146.537 85.1048C146.294 87.6296 145.888 90.1363 145.279 92.6067C145.218 92.861 145.665 92.97 145.726 92.7157C146.334 90.209 146.76 87.666 147.004 85.1048C147.024 84.8505 146.578 84.8505 146.537 85.1048Z" fill="#161616"/>
<path d="M100.843 61.7635C104.354 61.9814 107.803 62.49 111.212 63.2348C111.597 63.3256 111.76 62.7988 111.374 62.708C107.904 61.9451 104.394 61.4365 100.843 61.2185C100.458 61.1822 100.458 61.7271 100.843 61.7635Z" fill="white"/>
<path opacity="0.1" d="M135.337 56.2773C134.343 57.894 132.801 60.4915 131.116 63.7248C126.571 72.4618 115.27 94.1865 122.797 100.762C124.177 101.961 127.241 103.577 134.85 102.161C128.296 105.394 121.742 108.645 115.188 111.879C116.162 103.759 116.629 96.8021 116.873 91.3528C117.035 87.7199 117.238 82.979 117.116 76.6578C117.015 71.4083 116.71 66.9035 116.386 63.3796C118.638 62.2898 121.093 61.1999 123.751 60.1464C127.85 58.5297 131.745 57.2582 135.337 56.2773Z" fill="#666666"/>
<path d="M55.474 18.1878C55.1087 18.6419 55.5754 19.4412 55.7986 19.8408C56.2044 20.531 57.2392 21.9479 59.9784 23.0014C58.9639 23.2012 58.5581 23.5645 58.3755 23.8733C58.0103 24.4727 58.4567 24.8905 58.4567 26.3255C58.4567 27.379 58.1929 27.5425 58.2943 28.4144C58.3755 29.1591 58.6393 29.7586 58.8625 30.14C58.903 30.4851 58.9639 30.9756 59.1059 31.575C59.2074 32.0109 59.2683 32.2289 59.3494 32.3742C59.7755 33.0645 60.9727 33.4278 62.0075 33.2461C63.3061 32.9918 63.8742 31.9383 63.9351 31.8111C64.4829 32.5377 65.0104 32.7557 65.3757 32.8102C66.0453 32.9192 66.4916 32.574 67.7902 32.3016C68.4395 32.1563 68.9671 32.1018 69.312 32.0836C69.2714 32.7557 69.2106 33.7547 69.1497 34.9717C68.9671 38.9861 68.8656 41.0931 69.0685 43.618C69.1294 44.4172 69.3526 46.7968 70.1236 49.8121C70.5903 51.6648 71.3208 54.4622 73.0251 57.6591C74.0802 59.639 75.7238 62.7451 79.2137 65.7241C80.7964 67.0683 84.5906 70.2289 90.7183 71.4095C95.2837 72.2814 99.0983 71.682 101.249 71.1916C102.913 70.3923 104.577 69.6113 106.24 68.812C106.484 68.5032 106.89 67.8493 106.89 67.0138C106.89 65.7604 106.017 64.5797 104.638 63.9258C103.582 64.1619 102.122 64.4344 100.377 64.5797C98.6722 64.7069 95.304 64.943 91.3676 63.8531C89.6835 63.399 85.2197 62.1094 81.7906 58.3857C80.1673 56.6237 79.4572 55.0434 78.2601 52.3369C76.8397 49.1581 76.2716 46.6515 75.6832 44.0539C74.4455 38.4593 73.8165 35.6438 74.4049 32.901C74.7092 31.4842 75.2774 29.7949 74.8919 27.4335C74.5063 25.1266 73.5121 23.9459 73.2078 23.619C72.3758 22.6926 71.3613 22.1477 70.7932 21.8207C69.7584 21.2394 69.9613 21.5664 68.2163 20.749C67.912 20.6037 67.567 20.4402 67.1004 20.4584C66.5525 20.4947 66.1264 20.7672 65.9032 20.967C64.6249 20.64 63.5495 20.3312 62.7582 20.0951C60.9524 19.5683 60.0393 19.314 59.6132 19.096C58.5378 18.5511 58.1523 18.0788 57.1175 17.9517C56.7928 17.8609 55.8392 17.7337 55.474 18.1878Z" fill="white"/>
<path d="M74.5874 28.3762C73.9178 32.3542 73.999 36.3686 74.6077 40.3466C75.2164 44.3609 76.2309 48.4298 77.7933 52.2261C79.1122 55.4412 81.0194 58.4565 84.0021 60.6726C86.5993 62.598 89.724 63.8695 93.0111 64.4871C96.7648 65.1955 100.701 65.032 104.374 64.0511C104.739 63.9422 104.597 63.4154 104.211 63.5244C97.8402 65.2318 90.5356 64.3781 85.1384 60.7997C82.0543 58.7471 79.9846 55.859 78.6252 52.6802C77.144 49.2835 76.2106 45.6506 75.5208 42.0722C74.6686 37.5856 74.4251 33.0082 75.1758 28.5034C75.2367 28.1764 74.6483 28.0311 74.5874 28.3762Z" fill="#161616"/>
<path d="M68.9466 32.1182C68.1959 41.0733 68.5205 50.4643 73.1873 58.6201C77.1034 65.4681 84.0021 70.9719 92.7472 71.9164C97.4952 72.425 102.405 71.535 106.342 69.0465C106.666 68.8467 106.362 68.3744 106.037 68.5742C98.9561 73.0608 89.1153 72.0981 82.318 67.6478C75.1352 62.9251 71.2597 55.2233 69.9206 47.5216C69.0278 42.4356 69.1293 37.2406 69.5554 32.1182C69.5959 31.7731 68.9872 31.7731 68.9466 32.1182Z" fill="#161616"/>
<path d="M104.191 64.0347C106.322 64.7976 107.012 66.9955 105.754 68.6848C105.53 68.9754 106.058 69.2479 106.281 68.9573C107.783 66.9592 106.829 64.398 104.354 63.5079C103.988 63.3808 103.826 63.9075 104.191 64.0347Z" fill="#161616"/>
<path d="M70.7322 25.9059C71.4424 24.7252 69.4539 24.8523 68.8046 24.6707C67.9525 24.4164 66.9988 23.7443 66.3901 23.163C65.477 22.2911 65.3959 20.4929 67.3032 20.8198C71.0975 21.4919 75.1352 24.598 74.5468 28.3217C74.4859 28.6669 75.0744 28.8122 75.1352 28.467C75.7845 24.2892 71.483 21.0923 67.2829 20.2567C65.7408 19.9479 64.7466 21.2558 65.2133 22.5273C65.4973 23.2902 66.2481 23.8533 66.9379 24.3074C67.364 24.598 67.8307 24.8887 68.3177 25.0885C68.5409 25.1611 70.2656 25.4699 70.1641 25.6334C70.0221 25.9422 70.5496 26.2147 70.7322 25.9059Z" fill="#161616"/>
<path d="M65.3351 20.4757C62.9205 19.9671 60.5668 19.2223 58.3552 18.2051C57.3407 17.7328 55.2508 16.8791 55.2102 18.6774C55.1899 20.1124 56.6305 21.5655 57.8276 22.3648C59.6335 23.5818 61.8857 24.0359 64.0568 24.3265C64.4423 24.381 64.6046 23.8542 64.2191 23.7997C61.0741 23.3638 56.9551 22.3829 55.9406 19.2405C55.8595 19.0588 55.8189 18.8772 55.8189 18.6774C56.2044 18.0961 56.6305 17.969 57.158 18.2596C57.5233 18.4049 57.8479 18.5866 58.2131 18.75C58.8827 19.0407 59.5523 19.3313 60.2422 19.5856C61.8451 20.185 63.4886 20.6573 65.1727 21.0024C65.5583 21.0932 65.7206 20.5665 65.3351 20.4757Z" fill="#161616"/>
<path d="M59.4508 22.782C58.3145 23.0726 57.8478 24.3259 57.8884 25.2887C57.9493 26.5238 58.8421 27.5592 59.9986 28.1768C61.0537 28.7581 62.6566 29.2122 63.7726 28.4674C64.5842 27.9225 64.7668 26.8871 64.0567 26.215C63.7929 25.9607 63.3668 26.3422 63.6306 26.5965C64.1176 27.0506 63.8741 27.7409 63.3668 28.0497C62.9204 28.3221 62.3117 28.304 61.8045 28.2313C61.0131 28.1041 60.2421 27.7227 59.6334 27.2504C59.045 26.7781 58.6392 26.1787 58.5377 25.4885C58.416 24.7437 58.6594 23.5449 59.6131 23.2906C59.9986 23.2179 59.8363 22.6912 59.4508 22.782Z" fill="#161616"/>
<path d="M58.2537 26.4156C57.5841 27.9233 58.0305 29.776 59.4711 30.8296C60.1204 31.3019 61.0131 31.5925 61.8451 31.4653C62.677 31.32 63.1639 30.7932 63.6509 30.212C63.8741 29.9214 63.3465 29.6489 63.1233 29.9395C62.5958 30.5753 61.9871 31.0657 61.0537 30.9022C60.2827 30.7751 59.6334 30.321 59.2073 29.7579C58.4971 28.8133 58.3957 27.6326 58.8624 26.5791C58.9841 26.234 58.3957 26.0887 58.2537 26.4156Z" fill="#161616"/>
<path d="M58.4565 30.1036C58.5174 31.5931 59.1667 33.3187 61.0334 33.6456C63.0219 33.9908 64.0973 32.1743 64.6045 30.7575C64.7263 30.4305 64.1378 30.2852 64.0161 30.6122C63.6103 31.7384 62.7784 33.4095 61.1146 33.0826C59.5725 32.7919 59.1058 31.3206 59.0653 30.1036C59.0653 29.7585 58.4565 29.7403 58.4565 30.1036Z" fill="#161616"/>
<path d="M63.7523 31.7743C63.9552 32.5735 64.8683 32.8642 65.7002 32.9731C67.019 33.1548 67.993 32.5554 69.2713 32.4282C69.6568 32.3919 69.6568 31.847 69.2713 31.8833C68.6423 31.9559 68.0944 32.1739 67.4654 32.3192C66.6741 32.519 64.6045 32.6825 64.3407 31.629C64.2596 31.2839 63.6711 31.4292 63.7523 31.7743Z" fill="#161616"/>
<path d="M69.2918 32.3182C71.3208 33.0266 73.6136 32.3546 74.8311 30.7561C75.0543 30.4655 74.5267 30.193 74.3035 30.4836C73.2281 31.9004 71.1991 32.4091 69.4541 31.7915C69.0889 31.6643 68.9469 32.1911 69.2918 32.3182Z" fill="#161616"/>
<path d="M92.2604 64.5792C93.0517 65.2694 92.8691 67.0677 92.8082 67.9759C92.7271 69.1566 92.3416 70.2828 91.4082 71.1547C91.1444 71.409 91.5705 71.7905 91.8343 71.5362C92.8691 70.5553 93.3155 69.3019 93.3967 67.9759C93.4778 66.8861 93.6401 65.0333 92.6865 64.1796C92.4024 63.9434 91.9763 64.3249 92.2604 64.5792Z" fill="#161616"/>
<path d="M98.2866 64.9242C99.5244 66.9767 99.5446 69.4108 98.3475 71.4815C98.1649 71.7903 98.6924 72.0628 98.8751 71.754C100.174 69.5016 100.153 66.8859 98.8142 64.6517C98.6316 64.3247 98.104 64.6154 98.2866 64.9242Z" fill="#161616"/>
<path d="M69.2918 43.3452C71.3208 43.9628 73.4716 43.763 75.3383 42.8002C75.6833 42.6186 75.3789 42.1463 75.034 42.328C73.3093 43.218 71.3614 43.3815 69.4541 42.8184C69.0889 42.7094 68.9266 43.2362 69.2918 43.3452Z" fill="#161616"/>
<path d="M71.1584 53.9887C73.7353 54.4791 76.3528 53.6254 77.9557 51.7545C78.1992 51.482 77.6716 51.2095 77.4281 51.482C75.9875 53.135 73.6136 53.916 71.3207 53.4619C70.9352 53.3893 70.7729 53.916 71.1584 53.9887Z" fill="#161616"/>
<path d="M82.2572 59.2026C82.3384 60.2198 81.9528 61.1462 81.1615 61.8727C80.8775 62.127 81.3238 62.5085 81.5876 62.2542C82.5007 61.4368 82.9471 60.3469 82.8659 59.1844C82.8456 58.8574 82.2369 58.8574 82.2572 59.2026Z" fill="#161616"/>
<path d="M69.6366 48.5759C70.5293 48.9392 71.483 49.0118 72.4163 48.7575C72.8019 48.6667 72.6395 48.1399 72.254 48.2308C71.483 48.4306 70.6917 48.3942 69.9409 48.1036C69.596 47.9583 69.2713 48.4306 69.6366 48.5759Z" fill="#161616"/>
<path d="M69.1699 35.8068C70.9149 36.1882 72.6193 36.0247 74.2628 35.3708C74.628 35.2255 74.3034 34.7532 73.9584 34.8985C72.4772 35.498 70.9149 35.6069 69.3322 35.28C68.9467 35.1892 68.7844 35.7159 69.1699 35.8068Z" fill="#161616"/>
<path d="M74.6889 60.8922C77.5905 61.4916 80.3702 60.1293 81.3645 57.6226C81.4862 57.2956 80.9181 57.1503 80.7761 57.4773C79.9036 59.6933 77.4079 60.8922 74.8513 60.3654C74.4657 60.2746 74.3034 60.8014 74.6889 60.8922Z" fill="#161616"/>
<path d="M87.0862 62.7261C87.9587 65.0329 85.3006 67.358 83.2919 68.3389C82.9469 68.5023 83.2513 68.9746 83.5962 68.8111C85.8485 67.7213 88.6485 65.1238 87.6746 62.5989C87.5528 62.2538 86.9644 62.3991 87.0862 62.7261Z" fill="#161616"/>
<path opacity="0.13" d="M60.5466 23.8008C61.277 24.4729 60.4045 25.5991 61.0335 26.3256C61.3785 26.7071 62.1495 26.9977 64.0365 26.6708C64.0365 26.9614 64.0568 27.3973 64.2394 27.8878C64.2394 27.8878 64.6452 29.0503 65.7815 29.795C67.1003 30.6669 69.0685 30.6851 70.8338 29.8859C70.9149 30.9757 71.057 32.5197 71.2193 34.4088C72.1729 45.1984 72.5382 47.142 73.0657 48.9948C73.6744 51.1745 74.4455 53.881 76.4542 56.8963C77.7122 58.7673 81.9326 64.8705 90.6169 67.3045C97.9823 69.3753 104.313 67.5952 106.525 66.8686C106.403 67.6133 106.261 68.3762 106.139 69.121C105.165 69.6477 103.765 70.3198 101.979 70.8648C101.756 70.9374 97.7388 72.0999 93.2546 71.7366C84.7935 71.0464 78.9093 65.2701 77.4484 63.8351C72.1729 58.6401 70.6714 52.9547 69.9816 50.3753C68.9671 46.5063 68.8859 42.9461 68.825 40.3849C68.7439 37.1335 68.9671 34.3906 69.2105 32.3925C68.8453 32.556 67.912 32.9011 66.6945 32.7377C65.3148 32.556 64.4423 31.8476 64.1785 31.6115C64.1177 31.7568 63.793 32.6468 62.7176 33.0828C62.6567 33.1191 61.5002 33.5551 60.4857 33.0828C59.5726 32.665 59.3291 31.7568 58.8422 29.9585C58.5378 28.8686 58.4769 28.0876 58.3552 26.8342C58.1117 24.0914 58.4364 23.7644 58.6393 23.6191C59.1262 23.274 60.0799 23.3648 60.5466 23.8008Z" fill="#666666"/>
<path opacity="0.15" d="M73.147 57.4766C73.7557 58.1123 74.689 59.0387 75.8659 60.0741C77.9355 61.9087 82.6429 66.1047 87.8981 68.0664C95.2229 70.7911 102.791 68.902 106.22 67.8121C106.099 68.1936 105.956 68.5569 105.835 68.9383C104.82 69.4287 95.2026 73.8972 84.9965 69.5377C76.4746 65.923 73.6339 58.7844 73.147 57.4766Z" fill="#666666"/>
<path d="M119.064 46.7759C118.861 47.7931 118.78 48.6832 118.759 49.3371C118.739 49.7367 118.678 51.2262 119.003 53.188C119.145 54.0962 119.348 54.8591 119.51 55.4222C120.342 55.622 121.539 55.8218 123 55.7492C124.928 55.6583 126.409 55.1316 127.302 54.7501C127.261 54.2597 127.221 53.4786 127.119 52.5159C126.896 50.3543 126.713 49.5914 126.693 48.1746C126.673 47.5752 126.693 46.6669 126.815 45.5589C125.963 45.3591 124.278 45.0685 122.27 45.5044C120.789 45.7951 119.713 46.3582 119.064 46.7759Z" fill="white"/>
<path d="M118.8 46.5762C118.11 49.4462 118.557 52.3344 119.064 55.2043C119.125 55.5495 119.713 55.4041 119.652 55.059C119.165 52.298 118.719 49.4826 119.389 46.7216C119.47 46.3764 118.881 46.2311 118.8 46.5762Z" fill="#161616"/>
<path d="M119.206 46.9575C120.119 46.2309 121.458 45.9766 122.615 45.7586C123.934 45.5225 125.232 45.4862 126.551 45.7041C126.937 45.7768 127.099 45.25 126.713 45.1774C125.293 44.9231 123.873 44.9776 122.452 45.2319C121.154 45.468 119.774 45.7586 118.76 46.576C118.496 46.8122 118.922 47.1936 119.206 46.9575Z" fill="#161616"/>
<path d="M126.49 45.5225C126.247 48.5741 126.429 51.6258 126.997 54.641C127.058 54.9862 127.647 54.8409 127.586 54.4957C127.018 51.5168 126.855 48.5196 127.099 45.5225C127.119 45.1774 126.51 45.1774 126.49 45.5225Z" fill="#161616"/>
<path d="M119.186 55.3866C120.18 56.095 121.864 56.0042 123.081 55.9678C124.603 55.9315 126.084 55.6409 127.403 54.9506C127.748 54.769 127.444 54.2967 127.099 54.4784C125.963 55.0778 124.725 55.3502 123.426 55.4229C122.392 55.4774 120.484 55.6045 119.632 55.0051C119.307 54.7871 118.881 55.1686 119.186 55.3866Z" fill="#161616"/>
<path d="M119.084 49.9557C119.835 49.0111 121.093 48.7023 122.31 48.4662C123.67 48.1937 125.07 47.9394 126.328 48.6297C126.673 48.8113 126.977 48.339 126.632 48.1574C125.232 47.3945 123.67 47.6306 122.148 47.9394C120.768 48.23 119.429 48.6115 118.557 49.6832C118.333 49.9557 118.861 50.2281 119.084 49.9557Z" fill="#161616"/>
<path d="M119.206 53.061C121.275 51.5534 123.974 50.954 126.612 51.4262C126.997 51.4989 127.16 50.9721 126.774 50.8995C123.913 50.3909 121.052 51.0266 118.78 52.6796C118.475 52.8976 118.901 53.279 119.206 53.061Z" fill="#161616"/>
<path d="M122.594 53.8062C123.284 53.5337 123.995 53.4429 124.766 53.4429C125.293 53.4429 126.47 53.3884 126.835 53.7699C127.099 54.0423 127.525 53.6427 127.261 53.3884C126.795 52.898 125.739 52.9525 125.09 52.9161C124.116 52.8798 123.203 53.007 122.29 53.3521C121.925 53.4792 122.229 53.9333 122.594 53.8062Z" fill="#161616"/>
<path d="M99.9504 44.7602C101.675 45.6321 104.374 46.7946 107.843 47.4304C111.577 48.1206 114.478 47.9027 117.745 47.6483C119.044 47.5394 123.366 47.1579 129.128 45.6503C132.699 44.7057 137.488 43.1617 142.824 40.5279C143.23 38.7296 143.595 36.6589 143.757 34.352C143.94 31.8635 143.879 29.6111 143.696 27.6675C142.56 26.5413 141.18 25.3243 139.537 24.1073C138.035 22.9811 136.575 22.0729 135.235 21.3281C123.467 29.1388 111.719 36.9495 99.9504 44.7602Z" fill="#161616"/>
<path d="M135.175 21.3105C135.459 22.2188 135.824 23.5084 136.108 25.1069C136.29 26.106 136.859 29.7388 136.169 34.5161C135.986 35.8602 135.641 37.6403 134.992 39.6929C134.261 40.0925 133.247 40.6193 132.009 41.2006C127.911 43.1078 124.461 44.0161 123.244 44.3249C122.371 44.5428 118.212 45.56 112.47 45.778C109.304 45.887 104.922 45.7962 99.7678 44.8335C100.133 39.2933 100.519 33.7713 100.884 28.2312C102.04 27.7226 103.643 27.0505 105.611 26.3421C106.869 25.888 112.693 23.8172 121.052 22.4912C124.786 21.8918 129.554 21.365 135.175 21.3105Z" fill="white"/>
<path d="M100.701 28.2119C100.275 33.7339 99.8489 39.274 99.4431 44.796C99.4228 45.1411 100.032 45.1411 100.052 44.796C100.478 39.274 100.904 33.7339 101.31 28.2119C101.33 27.8486 100.721 27.8486 100.701 28.2119Z" fill="#161616"/>
<path d="M101.33 28.2849C111.82 23.9618 123.284 21.6912 134.83 21.6367C135.215 21.6367 135.215 21.0918 134.83 21.0918C123.163 21.1463 111.617 23.435 101.026 27.8126C100.681 27.9579 100.985 28.4302 101.33 28.2849Z" fill="#161616"/>
<path d="M99.6662 44.9595C111.719 47.5934 124.583 45.8132 135.134 39.9643C135.458 39.7827 135.154 39.3104 134.829 39.492C124.4 45.2501 111.719 47.0303 99.8286 44.4327C99.443 44.3419 99.2807 44.8687 99.6662 44.9595Z" fill="#161616"/>
<path d="M134.728 21.4012C136.635 27.45 136.575 33.8439 134.566 39.8745C134.444 40.2196 135.032 40.3467 135.154 40.0198C137.204 33.9165 137.264 27.3955 135.317 21.2559C135.215 20.9108 134.627 21.0561 134.728 21.4012Z" fill="#161616"/>
<path d="M135.073 21.4732C138.259 23.3078 141.059 25.5784 143.412 28.2304C143.656 28.5029 144.082 28.1214 143.839 27.8489C141.444 25.1606 138.604 22.8719 135.377 21.0191C135.053 20.8011 134.748 21.2734 135.073 21.4732Z" fill="#161616"/>
<path d="M143.291 28.0672C143.717 32.2995 143.453 36.5318 142.499 40.7096C142.418 41.0547 143.007 41.2 143.088 40.8549C144.062 36.6408 144.325 32.354 143.899 28.0853C143.859 27.722 143.25 27.722 143.291 28.0672Z" fill="#161616"/>
<path d="M99.7069 45.1238C101.391 45.7414 103.075 46.3408 104.759 46.9584C106.017 47.4125 107.316 47.5942 108.635 47.7395C111.739 48.121 114.904 48.2118 118.029 47.9575C123.284 47.5579 128.479 46.2137 133.409 44.5971C136.737 43.5072 139.963 42.1994 143.067 40.6917C143.412 40.5282 143.108 40.056 142.763 40.2194C137.812 42.6171 132.598 44.4154 127.2 45.7959C121.519 47.2491 115.716 47.8848 109.811 47.3036C108.391 47.1582 106.809 47.0674 105.469 46.6133C103.582 45.9776 101.716 45.251 99.8489 44.5789C99.504 44.4699 99.3417 44.9967 99.7069 45.1238Z" fill="#161616"/>
<path d="M134.708 40.4C137.427 40.8723 140.166 40.9631 142.925 40.6725C143.311 40.6361 143.311 40.0912 142.925 40.1275C140.227 40.4181 137.548 40.3273 134.87 39.8732C134.485 39.8187 134.322 40.3273 134.708 40.4Z" fill="#161616"/>
<path d="M106.91 32.1725C106.382 31.9546 106.464 31.2825 106.443 30.8647C106.423 30.6467 106.403 30.4288 106.423 30.1926C106.423 29.9383 106.464 29.7203 106.585 29.4842C106.727 29.1936 106.951 29.1572 107.214 29.3389C107.681 29.4842 107.62 29.5932 107.62 29.9928C107.62 30.2289 107.6 30.4469 107.58 30.6831C107.559 30.9192 107.559 31.1735 107.539 31.4096C107.539 31.4823 107.316 32.7356 106.93 32.227C106.707 31.9364 106.179 32.2089 106.403 32.4995C106.991 33.2806 107.924 32.663 108.087 31.9546C108.229 31.3188 108.229 30.5741 108.229 29.9201C108.229 29.5024 108.148 29.0301 107.742 28.7758C106.829 28.1945 105.936 29.1572 105.835 29.9201C105.733 30.7012 105.632 32.2634 106.606 32.663C106.951 32.7901 107.255 32.3179 106.91 32.1725Z" fill="#161616"/>
<path d="M106.626 29.1198C106.281 30.246 106.362 31.3904 106.849 32.4803C106.971 32.7527 107.458 32.7346 107.438 32.4076C107.417 31.3541 107.478 30.3187 107.62 29.2833C107.417 29.2833 107.214 29.2833 107.012 29.2833C107.072 29.7193 107.113 30.1371 107.113 30.573C107.113 30.7546 107.133 30.9908 107.093 31.1543C107.072 31.2814 106.89 31.7355 106.971 31.2996C107.032 30.9545 106.423 30.9545 106.362 31.2996C106.281 31.8263 106.849 32.6256 107.478 32.0806C107.722 31.8627 107.701 31.4449 107.722 31.1543C107.762 30.5185 107.722 29.9009 107.641 29.2833C107.6 28.9382 107.093 28.9382 107.032 29.2833C106.87 30.3187 106.809 31.3541 106.849 32.4076C107.052 32.3894 107.255 32.3531 107.438 32.3349C106.991 31.3359 106.91 30.3187 107.214 29.2652C107.316 28.9382 106.727 28.7929 106.626 29.1198Z" fill="#161616"/>
<path d="M106.403 29.5749C106.24 29.9382 106.22 30.3197 106.281 30.7011C106.301 30.8464 106.504 30.9191 106.646 30.8828C106.829 30.8464 106.89 30.7011 106.849 30.5558C106.809 30.2652 106.869 29.9927 106.971 29.7202C107.133 29.3933 106.545 29.248 106.403 29.5749Z" fill="#161616"/>
<path d="M123.751 29.411C123.223 29.193 123.305 28.521 123.284 28.1032C123.264 27.8852 123.244 27.6854 123.264 27.4674C123.264 27.3403 123.264 27.2131 123.305 27.1041C123.325 26.6864 123.71 26.5592 124.421 26.7409C124.624 27.0133 124.441 27.7762 124.421 28.0669C124.4 28.2667 124.4 28.4665 124.38 28.6663C124.38 28.7389 124.157 29.9923 123.771 29.4837C123.548 29.193 123.021 29.4655 123.244 29.7561C123.832 30.5372 124.766 29.9196 124.928 29.2112C125.07 28.5936 125.05 27.8852 125.07 27.2676C125.07 26.8498 125.029 26.3594 124.644 26.0688C123.771 25.3967 122.818 26.3049 122.676 27.0678C122.534 27.8489 122.452 29.4837 123.426 29.9015C123.812 30.0286 124.116 29.5745 123.751 29.411Z" fill="#161616"/>
<path d="M123.487 26.377C123.142 27.5032 123.223 28.6476 123.71 29.7374C123.832 30.0099 124.319 29.9917 124.299 29.6648C124.278 28.6112 124.339 27.5759 124.481 26.5405C124.278 26.5405 124.076 26.5405 123.873 26.5405C123.933 26.9765 123.974 27.3942 123.974 27.8302C123.974 28.0118 123.994 28.248 123.954 28.4114C123.933 28.5386 123.751 28.9927 123.832 28.5568C123.893 28.2116 123.284 28.2116 123.223 28.5568C123.142 29.0835 123.71 29.8828 124.339 29.3378C124.583 29.1199 124.562 28.7021 124.583 28.4114C124.623 27.7757 124.583 27.1581 124.502 26.5405C124.461 26.1954 123.954 26.1954 123.893 26.5405C123.731 27.5759 123.67 28.6112 123.71 29.6648C123.913 29.6466 124.116 29.6103 124.299 29.5921C123.852 28.5931 123.771 27.5759 124.076 26.5223C124.177 26.1772 123.589 26.0319 123.487 26.377Z" fill="#161616"/>
<path d="M123.264 26.8131C123.102 27.1764 123.082 27.5579 123.142 27.9393C123.163 28.0847 123.366 28.1573 123.508 28.121C123.69 28.0847 123.751 27.9393 123.711 27.794C123.67 27.5034 123.731 27.2309 123.832 26.9585C123.995 26.6315 123.406 26.5043 123.264 26.8131Z" fill="#161616"/>
<path d="M111.82 35.0415C113.606 35.2594 115.98 35.0596 117.562 34.2241C117.907 34.0424 117.603 33.5701 117.258 33.7518C115.817 34.4965 113.606 34.7145 111.982 34.5147C111.617 34.4784 111.435 35.0051 111.82 35.0415Z" fill="#161616"/>
<path d="M111.536 35.0794C112.084 36.1693 113.423 37.6951 114.965 37.5134C116.487 37.3499 117.4 35.4245 117.725 34.2802C117.826 33.935 117.238 33.7897 117.136 34.1348C116.913 34.9522 116.264 36.478 115.29 36.8413C113.87 37.3681 112.571 35.7696 112.084 34.7888C111.901 34.4981 111.374 34.7706 111.536 35.0794Z" fill="#161616"/>
<path d="M112.043 35.2958C113.606 35.9497 115.939 35.6046 117.258 34.66C117.116 34.5329 116.974 34.4057 116.832 34.2786C116.061 34.8417 115.107 35.1686 114.093 35.1505C113.545 35.1505 113.099 34.8962 112.652 35.2231C112.571 35.2958 112.551 35.4048 112.571 35.4956C112.672 35.986 113.423 36.2222 113.89 36.2948C114.864 36.4401 115.757 36.0223 116.528 35.5137C116.406 35.3684 116.284 35.2231 116.162 35.0778C115.472 35.7862 113.707 36.1677 112.956 35.3139C112.733 35.0596 112.327 35.3866 112.47 35.6409C112.896 36.3311 113.545 37.0214 114.519 36.9669C115.533 36.9306 116.162 36.1495 116.67 35.4592C116.873 35.1868 116.446 34.9506 116.183 35.1323C115.716 35.4592 115.391 35.5137 114.884 35.6772C114.559 35.7862 114.316 35.7317 114.438 36.095C114.539 36.3856 114.884 36.4765 115.168 36.4765C116.041 36.4401 116.933 35.3139 117.319 34.7145C117.481 34.4602 117.075 34.1514 116.832 34.3875C116.061 35.1323 115.615 36.3311 114.377 36.4946C113.991 36.5491 114.154 37.0759 114.539 37.0214C115.939 36.8216 116.406 35.5864 117.258 34.769C117.096 34.66 116.933 34.551 116.771 34.442C116.487 34.8598 116 35.5501 115.452 35.7499C115.026 35.8952 115.087 35.8044 114.762 35.4956C114.681 35.4048 114.62 35.2958 114.519 35.2413C114.154 35.0415 113.788 35.2231 113.667 35.5501C113.626 35.6409 113.667 35.7499 113.748 35.8225C114.62 36.6763 115.757 36.095 116.588 35.5319C116.426 35.4229 116.264 35.3139 116.101 35.2049C115.696 35.7499 115.33 36.2766 114.559 36.3675C113.768 36.4765 113.322 35.9497 112.977 35.3684C112.814 35.4774 112.652 35.5864 112.49 35.6954C113.443 36.7671 115.635 36.3856 116.548 35.4592C116.771 35.2413 116.467 34.8417 116.183 35.0233C115.533 35.4592 114.742 35.877 113.91 35.7135C113.626 35.6954 113.362 35.5682 113.139 35.3866C113.2 35.5501 113.322 35.6227 113.464 35.6409C113.687 35.7317 114.093 35.6954 114.336 35.6772C115.412 35.6227 116.386 35.2413 117.217 34.6418C117.522 34.4239 117.096 34.0424 116.791 34.2604C115.736 35.0051 113.585 35.3503 112.307 34.8053C111.983 34.6782 111.678 35.1505 112.043 35.2958Z" fill="#161616"/>
<path d="M114.214 36.6047C114.681 36.2959 115.127 35.969 115.513 35.5875C115.351 35.4785 115.188 35.3696 115.026 35.2606C114.843 35.5694 114.58 35.8782 114.438 36.2051C114.377 36.3686 114.356 36.5502 114.519 36.6956C114.661 36.8227 114.884 36.8227 115.067 36.7501C115.412 36.6047 115.716 36.3504 116.02 36.1506C115.878 36.0235 115.736 35.8963 115.594 35.7692C115.472 36.0416 115.067 36.5684 115.412 36.8227C115.797 37.1133 116.142 36.6047 116.345 36.3868C116.588 36.1143 116.162 35.7328 115.919 36.0053C115.838 36.078 115.675 36.3504 115.554 36.3686C115.655 36.3868 115.756 36.4231 115.858 36.4413C115.838 36.4231 115.817 36.4049 115.817 36.3868C115.838 36.4594 115.878 36.5139 115.898 36.5866C115.898 36.4231 116.061 36.2051 116.122 36.0598C116.223 35.8418 115.98 35.5149 115.696 35.6784C115.574 35.751 114.904 36.2778 114.803 36.2414C114.864 36.2778 114.925 36.3323 114.985 36.3686C114.965 36.3504 114.965 36.3141 114.945 36.2959C114.965 36.3686 114.965 36.4413 114.985 36.5139C115.046 36.187 115.371 35.8237 115.554 35.533C115.716 35.2606 115.31 34.9699 115.067 35.2061C114.701 35.5512 114.316 35.86 113.89 36.1325C113.585 36.3323 113.89 36.8045 114.214 36.6047Z" fill="#161616"/>
<path d="M102.365 29.1377C101.898 34.024 101.574 38.9284 101.371 43.8328C101.35 44.1779 101.959 44.1779 101.979 43.8328C102.182 38.9284 102.507 34.024 102.974 29.1377C103.014 28.7926 102.405 28.7926 102.365 29.1377Z" fill="#161616"/>
<path d="M133.572 23.3804C135.114 28.5391 134.14 33.8613 132.78 38.9473C132.679 39.2924 133.267 39.4377 133.369 39.0926C134.769 33.9158 135.743 28.4846 134.16 23.2351C134.059 22.9081 133.47 23.0534 133.572 23.3804Z" fill="#161616"/>
<path d="M135.58 39.9292C137.366 40.2198 139.172 40.5104 140.957 40.801C141.343 40.8555 141.505 40.3469 141.12 40.2743C139.334 39.9836 137.528 39.693 135.743 39.4024C135.357 39.3479 135.195 39.8747 135.58 39.9292Z" fill="white"/>
<path d="M137.893 28.7019C137.731 28.938 137.548 29.2831 137.427 29.6827C137.244 30.3367 137.285 30.8998 137.325 31.2449C136.108 32.3529 132.963 34.9141 128.113 35.5317C126.186 35.786 124.502 35.6588 123.244 35.4409C123.102 35.9131 123 36.5126 123.345 36.7669C123.568 36.9485 123.893 36.8758 124.441 36.8577C125.354 36.8213 125.841 36.9848 126.287 37.0212C127.545 37.1483 130.873 36.6215 134.485 34.8051C135.459 34.3147 136.798 33.5518 138.259 32.4074C138.36 32.5345 139.09 33.3156 140.186 33.3156C141.708 33.2975 142.418 31.808 142.479 31.6627C142.844 30.8634 142.864 29.7554 142.114 28.938C141.424 28.1751 140.45 28.0479 140.186 28.0298C138.928 27.9208 138.035 28.5747 137.893 28.7019Z" fill="white" stroke="black" stroke-width="2"/>
<path d="M138.989 29.0661C138.056 30.374 138.624 32.2812 140.592 32.2449C140.795 32.2449 140.795 31.9724 140.592 31.9724C138.847 32.0088 138.461 30.3013 139.253 29.1933C139.375 29.048 139.111 28.9208 138.989 29.0661Z" fill="black"/>
<path d="M140.369 30.8272C140.105 30.6455 139.963 30.3367 140.044 30.0461C140.125 29.7736 140.511 29.5011 140.835 29.6465C141.18 29.7918 141.302 30.2822 141.14 30.5728C140.998 30.8635 140.511 30.9906 140.267 30.7C140.146 30.5547 139.882 30.7 140.003 30.8453C140.288 31.1904 140.876 31.2268 141.241 30.918C141.647 30.5547 141.606 29.8826 141.201 29.5193C140.815 29.1742 140.186 29.3195 139.902 29.701C139.577 30.1187 139.719 30.7 140.166 31.0088C140.308 31.1178 140.511 30.9361 140.369 30.8272Z" fill="black"/>
<path d="M127.525 35.623C127.85 35.9862 127.931 36.4767 127.708 36.8945C127.626 37.0579 127.89 37.1851 127.971 37.0398C128.235 36.5312 128.174 35.9499 127.789 35.4958C127.667 35.3505 127.403 35.4776 127.525 35.623Z" fill="black"/>
<path d="M124.076 35.6602C124.258 35.969 124.278 36.3323 124.096 36.6593C124.015 36.8227 124.278 36.9499 124.36 36.8046C124.583 36.3868 124.563 35.9327 124.339 35.5331C124.238 35.3696 123.974 35.4967 124.076 35.6602Z" fill="black"/>
<path d="M124.968 35.8594C125.192 36.0592 125.212 36.4043 125.009 36.6223C124.887 36.7495 125.111 36.9493 125.232 36.8221C125.537 36.477 125.537 35.9866 125.192 35.6778C125.05 35.5324 124.847 35.7323 124.968 35.8594Z" fill="black"/>
<path d="M125.963 35.8777C126.308 36.0956 126.287 36.5679 125.983 36.7859C125.841 36.8949 126.044 37.0947 126.206 36.9857C126.673 36.6406 126.612 35.9503 126.125 35.6415C125.963 35.5507 125.821 35.7868 125.963 35.8777Z" fill="black"/>
<path d="M130.832 23.6339C130.406 23.4886 130.548 23.0164 130.832 22.8347C131.116 22.6531 131.482 22.7076 131.664 22.98C132.05 23.5794 131.137 24.0699 130.67 23.5794C130.487 23.3796 130.163 23.6703 130.345 23.8701C130.731 24.2697 131.461 24.306 131.908 23.9609C132.354 23.5976 132.314 22.9437 131.908 22.5804C131.482 22.1808 130.772 22.2716 130.366 22.6712C129.94 23.1253 130.082 23.8337 130.711 24.0336C130.995 24.1062 131.096 23.7248 130.832 23.6339Z" fill="black"/>
<path opacity="0.16" d="M131.644 21.3828C131.786 23.6352 132.05 26.0692 132.517 28.6849C132.821 30.4287 133.186 32.0998 133.592 33.6438C133.146 33.8981 132.679 34.1524 132.192 34.4067C129.798 35.6237 127.485 36.4048 125.395 36.9134C126.47 36.9497 127.809 36.8952 129.351 36.6409C131.198 36.3321 132.699 35.8054 133.795 35.3331C132.172 36.9315 130.021 38.7843 127.261 40.5463C123.305 43.0893 119.49 44.5606 116.609 45.4507C118.821 46.1409 121.032 46.8311 123.224 47.5214C123.386 50.2097 123.548 52.8981 123.711 55.6046C124.826 55.3503 125.942 55.096 127.079 54.8235C126.916 53.1342 126.774 51.3904 126.693 49.574C126.653 48.5568 126.612 47.5577 126.592 46.5587C128.519 46.0864 130.102 45.6323 131.299 45.269C135.722 43.9248 138.867 42.5625 139.74 42.1811C141.201 41.5453 142.378 40.964 143.189 40.5463C143.412 39.2929 143.615 37.9851 143.757 36.5864C144.102 33.3532 144.123 30.3924 143.94 27.7404C142.986 26.6868 141.749 25.5061 140.207 24.3073C138.563 23.0358 136.96 22.0912 135.601 21.3828C134.262 21.3828 132.943 21.3828 131.644 21.3828Z" fill="#666666"/>
<path opacity="0.3" d="M56.6099 90.1719C56.7722 96.8745 56.9142 103.577 57.0765 110.28C65.1927 112.314 74.6886 114.167 85.3816 115.311C100.599 116.928 114.032 116.656 124.907 115.729C125.212 108.881 125.536 102.051 125.841 95.2034C116.507 94.8765 106.91 94.386 97.0689 93.7321C83.0482 92.7875 69.5551 91.5887 56.6099 90.1719Z" fill="#EC615B"/>
<g opacity="0.3">
<path d="M59.1462 93.3696C70.5291 95.5856 82.1149 96.8571 93.7616 97.1659C94.1471 97.1841 94.1471 96.6392 93.7616 96.621C82.1758 96.3122 70.6306 95.0589 59.3085 92.8428C58.923 92.7701 58.7607 93.2969 59.1462 93.3696Z" fill="#EC615B"/>
</g>
<g opacity="0.3">
<path d="M59.6535 97.0904C64.8682 98.489 70.2045 99.4154 75.6221 99.8877C76.0076 99.924 76.0076 99.3791 75.6221 99.3427C70.2654 98.8705 64.9696 97.9441 59.8159 96.5636C59.4303 96.4546 59.268 96.9814 59.6535 97.0904Z" fill="#EC615B"/>
</g>
<g opacity="0.3">
<path d="M75.3786 111.498C89.6225 113.441 104.09 115.367 118.516 113.895C118.901 113.859 118.901 113.314 118.516 113.35C104.13 114.822 89.7442 112.914 75.541 110.971C75.1554 110.916 74.9931 111.443 75.3786 111.498Z" fill="#EC615B"/>
</g>
<g opacity="0.3">
<path d="M97.5559 110.587C104.86 111.768 112.287 112.059 119.672 111.423C120.058 111.387 120.058 110.842 119.672 110.878C112.348 111.496 104.962 111.223 97.7182 110.061C97.3327 110.006 97.1704 110.515 97.5559 110.587Z" fill="#EC615B"/>
</g>
<g opacity="0.3">
<path d="M112.185 97.6715C112.53 100.142 112.348 102.612 111.658 105.028C111.597 105.21 111.759 105.355 111.942 105.373C113.687 105.5 115.412 105.628 117.156 105.755C117.907 105.809 119.591 106.281 120.058 105.537C120.301 105.155 120.241 104.501 120.281 104.084C120.322 103.43 120.342 102.776 120.383 102.122C120.464 100.632 120.606 99.161 121.133 97.726C121.194 97.5625 121.032 97.3627 120.849 97.3809C118.212 97.5625 115.594 97.4535 112.997 97.0539C112.753 97.0176 112.591 97.1811 112.632 97.3809C112.672 97.5988 112.672 97.5988 112.814 97.7805C113.038 98.0711 113.565 97.7987 113.342 97.508C113.301 97.4172 113.261 97.3264 113.22 97.2356C113.098 97.3445 112.977 97.4535 112.855 97.5625C115.513 97.9803 118.171 98.0893 120.87 97.9076C120.768 97.7987 120.667 97.6715 120.586 97.5625C119.774 99.7241 119.855 101.976 119.693 104.211C119.672 104.41 119.693 105.01 119.591 105.137C119.368 105.41 118.861 105.301 118.577 105.282C117.846 105.228 117.116 105.173 116.365 105.119C114.904 105.01 113.423 104.901 111.962 104.792C112.064 104.901 112.165 105.028 112.246 105.137C112.956 102.685 113.159 100.16 112.794 97.6352C112.753 97.3264 112.145 97.3264 112.185 97.6715Z" fill="#EC615B"/>
</g>
<path opacity="0.38" d="M25.3223 14.4615C25.5049 23.4711 25.6875 32.4988 25.8701 41.5083C39.8299 43.0886 53.7694 44.6508 67.7291 46.2311C68.0944 35.3869 68.4596 24.5609 68.8451 13.7168C54.3375 13.9711 39.8299 14.2254 25.3223 14.4615Z" fill="#5222D0"/>
<path d="M61.7637 43.3069C61.9666 42.9618 62.4333 42.4168 62.4942 42.0172C62.5347 41.7266 62.2304 41.436 62.0681 41.1998C61.3985 40.2008 60.7289 39.1836 60.0796 38.1845C59.755 37.6941 59.3492 37.1855 59.0854 36.6769C58.7607 36.0593 59.0651 35.8595 59.41 35.3327C59.9579 34.4972 60.4245 33.6253 60.8101 32.7352C62.1898 29.4656 62.413 25.7056 60.7695 22.4723C58.0912 17.1865 51.6185 15.9876 45.7546 15.8786C39.6878 15.7515 33.5601 17.7859 29.9484 22.327C25.7686 27.5765 28.2643 34.9331 33.9253 38.4207C39.8298 42.0717 48.088 41.9082 54.2563 38.9474C54.6012 38.784 54.2969 38.3117 53.9519 38.4752C48.9605 40.8729 43.1372 41.2543 37.8008 39.565C32.2818 37.8213 28.0411 32.935 28.4469 27.5402C28.9136 21.4733 35.5688 17.5679 41.7168 16.6597C43.5835 16.3873 45.4503 16.3873 47.3373 16.4781C49.9141 16.6052 52.5113 16.9322 54.865 17.9131C58.1926 19.2936 60.4448 21.9637 61.1144 25.197C61.9057 29.0115 60.5666 32.935 58.1926 36.0775C58.1317 36.1501 58.1317 36.2773 58.1926 36.3499C58.9231 37.458 59.6535 38.566 60.384 39.674C60.7086 40.1826 61.0535 40.6731 61.3782 41.1817C61.5811 41.4905 61.8449 41.7448 61.8043 42.1262C61.784 42.3987 61.4188 42.7983 61.2767 43.0526C61.0535 43.3432 61.5811 43.6339 61.7637 43.3069Z" fill="#5222D0"/>
<path d="M54.0534 39.2018C56.2854 40.8548 58.7405 42.1626 61.4391 43.1254C61.8044 43.2525 61.9667 42.7257 61.6015 42.5986C59.0246 41.6722 56.6303 40.4007 54.4795 38.8204C54.1752 38.5843 53.7491 38.9657 54.0534 39.2018Z" fill="#5222D0"/>
<ellipse cx="35.9341" cy="28.1026" rx="1.46091" ry="1.90726" fill="#5222D0" stroke="#5222D0"/>
<ellipse cx="44.2937" cy="27.8662" rx="1.46091" ry="1.90726" fill="#5222D0" stroke="#5222D0"/>
<ellipse cx="52.4301" cy="27.6495" rx="1.46091" ry="1.90726" fill="#5222D0" stroke="#5222D0"/>
</svg>
