<svg width="24" height="24" viewBox="0 0 24 24" fill="none" xmlns="http://www.w3.org/2000/svg">
<path d="M12 21.8504C11.8167 21.8504 11.646 21.8377 11.488 21.8124C11.3293 21.7877 11.1833 21.7504 11.05 21.7004C8.98333 20.9337 7.29167 19.5671 5.975 17.6004C4.65833 15.6337 4 13.4671 4 11.1004V6.37539C4 5.95872 4.121 5.58372 4.363 5.25039C4.60433 4.91706 4.91667 4.67539 5.3 4.52539L11.3 2.27539C11.5333 2.19206 11.7667 2.15039 12 2.15039C12.2333 2.15039 12.4667 2.19206 12.7 2.27539L18.7 4.52539C19.0833 4.67539 19.396 4.91706 19.638 5.25039C19.8793 5.58372 20 5.95872 20 6.37539V11.1004C20 13.4671 19.3417 15.6337 18.025 17.6004C16.7083 19.5671 15.0167 20.9337 12.95 21.7004C12.8167 21.7504 12.6707 21.7877 12.512 21.8124C12.354 21.8377 12.1833 21.8504 12 21.8504ZM12 19.9004C13.6167 19.4004 14.9667 18.4131 16.05 16.9384C17.1333 15.4631 17.7667 13.8171 17.95 12.0004H12V4.12539L6 6.37539V11.5504C6 11.6671 6.01667 11.8171 6.05 12.0004H12V19.9004Z" fill="#0356E8"/>
</svg>
